<svg width="20" height="20" viewBox="0 0 20 20" fill="none" xmlns="http://www.w3.org/2000/svg">
<g id="BookmarkSimple">
<path id="Vector" d="M15 1H4.25C3.91848 1 3.60054 1.1317 3.36612 1.36612C3.1317 1.60054 3 1.91848 3 2.25V18C3.00006 18.1115 3.02996 18.221 3.08661 18.3171C3.14326 18.4132 3.22459 18.4924 3.32216 18.5464C3.41973 18.6005 3.52998 18.6274 3.64148 18.6245C3.75298 18.6215 3.86166 18.5888 3.95625 18.5297L9.625 15.6117L15.2945 18.5297C15.3891 18.5886 15.4977 18.6212 15.6091 18.624C15.7205 18.6268 15.8306 18.5998 15.928 18.5458C16.0255 18.4918 16.1067 18.4127 16.1633 18.3167C16.2199 18.2208 16.2499 18.1114 16.25 18V2.25C16.25 1.91848 16.1183 1.60054 15.8839 1.36612C15.6495 1.1317 15.3315 1 15 1ZM15 16.8727L9.95547 14.3453C9.85614 14.2832 9.74136 14.2503 9.62422 14.2503C9.50708 14.2503 9.3923 14.2832 9.29297 14.3453L4.25 16.8727V2.25H15V16.8727Z" fill="#DDE3EE"/>
</g>
</svg>
