<svg width="26" height="26" viewBox="0 0 26 26" fill="none" xmlns="http://www.w3.org/2000/svg">
<rect x="1" y="1" width="24" height="24" rx="12" fill="#EFE3FF"/>
<path d="M17.0001 5.79993H8.40015C8.13493 5.79993 7.88058 5.90528 7.69304 6.09282C7.5055 6.28036 7.40015 6.53471 7.40015 6.79993V19.3999C7.40019 19.4892 7.42411 19.5768 7.46943 19.6536C7.51475 19.7305 7.57981 19.7938 7.65787 19.8371C7.73593 19.8803 7.82413 19.9019 7.91333 19.8995C8.00253 19.8972 8.08948 19.871 8.16515 19.8237L12.7001 17.4893L17.2358 19.8237C17.3114 19.8708 17.3983 19.8969 17.4874 19.8991C17.5765 19.9014 17.6646 19.8798 17.7426 19.8366C17.8205 19.7934 17.8855 19.7301 17.9308 19.6533C17.9761 19.5765 18 19.4891 18.0001 19.3999V6.79993C18.0001 6.53471 17.8948 6.28036 17.7073 6.09282C17.5197 5.90528 17.2654 5.79993 17.0001 5.79993ZM17.0001 18.4981L12.9645 16.4762C12.8851 16.4265 12.7932 16.4002 12.6995 16.4002C12.6058 16.4002 12.514 16.4265 12.4345 16.4762L8.40015 18.4981V6.79993H17.0001V18.4981Z" fill="#5C6C8A"/>
<path d="M17.0001 18.4981L12.9645 16.4762C12.8851 16.4265 12.7932 16.4002 12.6995 16.4002C12.6058 16.4002 12.514 16.4265 12.4345 16.4762L8.40015 18.4981V6.79993H17.0001V18.4981Z" fill="white"/>
<rect x="1" y="1" width="24" height="24" rx="12" stroke="#9AA8C3"/>
</svg>
