<svg width="24" height="24" viewBox="0 0 24 24" fill="none" xmlns="http://www.w3.org/2000/svg">
<g id="Chat Icon">
<path id="Vector" d="M18.6854 9.39979L14.6005 5.31551C14.5005 5.21549 14.3817 5.13614 14.251 5.082C14.1204 5.02786 13.9803 5 13.8389 5C13.6974 5 13.5574 5.02786 13.4267 5.082C13.296 5.13614 13.1773 5.21549 13.0773 5.31551L9.46751 8.93671C8.75 8.7119 7.11172 8.44065 5.40208 9.82114C5.28424 9.9159 5.18768 10.0344 5.11867 10.169C5.04967 10.3035 5.00977 10.4511 5.00158 10.6021C4.99339 10.7531 5.01709 10.9041 5.07113 11.0453C5.12518 11.1865 5.20835 11.3148 5.31525 11.4217L8.5676 14.6727L5.69622 17.5421C5.59518 17.6431 5.53842 17.7802 5.53842 17.9231C5.53842 18.066 5.59518 18.203 5.69622 18.304C5.79726 18.4051 5.93429 18.4618 6.07718 18.4618C6.22007 18.4618 6.35711 18.4051 6.45815 18.304L9.32751 15.4327L12.5778 18.683C12.6778 18.7833 12.7965 18.863 12.9272 18.9174C13.058 18.9718 13.1982 18.9998 13.3398 19C13.3653 19 13.3903 19 13.4158 19C13.5693 18.9894 13.7188 18.9458 13.854 18.8723C13.9892 18.7988 14.1069 18.697 14.1993 18.5739C15.5212 16.8172 15.394 15.3889 15.0871 14.5354L18.6861 10.923C18.7861 10.8229 18.8654 10.7042 18.9194 10.5735C18.9735 10.4428 19.0013 10.3027 19.0013 10.1612C19.0012 10.0198 18.9733 9.87975 18.9191 9.7491C18.8649 9.61845 18.7855 9.49975 18.6854 9.39979ZM17.9235 10.1617L14.0687 14.0293C13.9891 14.1092 13.9366 14.2121 13.9186 14.3234C13.9006 14.4348 13.918 14.5489 13.9684 14.6499C14.6052 15.924 13.8473 17.2473 13.3398 17.9224L6.07718 10.6591C6.89027 10.0035 7.66836 9.83057 8.26336 9.83057C8.64091 9.82541 9.01535 9.89948 9.36251 10.048C9.46379 10.0987 9.57848 10.1161 9.69026 10.0979C9.80203 10.0796 9.90521 10.0266 9.98511 9.94634L13.8392 6.07677L17.9235 10.1611V10.1617Z" fill="#BFC8DC"/>
</g>
</svg>
