<svg width="24" height="24" viewBox="0 0 24 24" fill="none" xmlns="http://www.w3.org/2000/svg">
<g id="Chat Icon">
<path id="Vector" d="M18.5 5H6.12502C5.82665 5 5.5405 5.11853 5.32953 5.3295C5.11855 5.54048 5.00002 5.82663 5.00002 6.125V17.375C4.99872 17.5895 5.05941 17.7999 5.17479 17.9807C5.29017 18.1616 5.45533 18.3053 5.65041 18.3945C5.79907 18.4638 5.96103 18.4997 6.12502 18.5C6.38912 18.4994 6.64445 18.4052 6.84572 18.2342C6.84908 18.232 6.85215 18.2294 6.85486 18.2265L9.1133 16.25H18.5C18.7984 16.25 19.0845 16.1315 19.2955 15.9205C19.5065 15.7095 19.625 15.4234 19.625 15.125V6.125C19.625 5.82663 19.5065 5.54048 19.2955 5.3295C19.0845 5.11853 18.7984 5 18.5 5ZM18.5 15.125H9.1133C8.84838 15.1249 8.59191 15.2183 8.38908 15.3887L8.38065 15.3964L6.12502 17.375V6.125H18.5V15.125Z" fill="#7E8DA9"/>
</g>
</svg>
