<svg width="35" height="38" viewBox="0 0 35 38" fill="none" xmlns="http://www.w3.org/2000/svg">
<rect x="0.250244" y="0.502991" width="34.7498" height="36.994" rx="8" fill="#5A34D9"/>
<path d="M26.2369 17.6845L10.4869 8.69477C10.2214 8.54584 9.91687 8.48121 9.61378 8.50947C9.31069 8.53773 9.02337 8.65753 8.78999 8.85296C8.5566 9.0484 8.3882 9.31022 8.30716 9.60364C8.22612 9.89706 8.23626 10.2082 8.33625 10.4957L11.2425 18.9773C11.2421 18.9804 11.2421 18.9835 11.2425 18.9866C11.242 18.9897 11.242 18.9929 11.2425 18.996L8.33625 27.4963C8.25618 27.7225 8.23152 27.9646 8.26436 28.2022C8.2972 28.4399 8.38657 28.6662 8.52497 28.8622C8.66337 29.0582 8.84676 29.2181 9.05976 29.3286C9.27276 29.439 9.50914 29.4968 9.74906 29.497C10.0094 29.4963 10.2651 29.4285 10.4916 29.3001L26.2331 20.2954C26.4653 20.1653 26.6587 19.9758 26.7935 19.7463C26.9283 19.5168 26.9996 19.2556 27 18.9894C27.0005 18.7233 26.9302 18.4618 26.7962 18.2318C26.6623 18.0018 26.4695 17.8116 26.2378 17.6807L26.2369 17.6845ZM9.74906 27.997V27.9885L12.5747 19.747H17.9991C18.198 19.747 18.3887 19.6679 18.5294 19.5273C18.67 19.3866 18.7491 19.1959 18.7491 18.997C18.7491 18.798 18.67 18.6073 18.5294 18.4666C18.3887 18.326 18.198 18.247 17.9991 18.247H12.5822L9.75469 10.0082L9.74906 9.99695L25.4991 18.981L9.74906 27.997Z" fill="white"/>
</svg>
