<svg width="19" height="22" viewBox="0 0 19 22" fill="none" xmlns="http://www.w3.org/2000/svg">
<path id="Vector" d="M18.2369 9.68451L2.48688 0.694827C2.22139 0.5459 1.91687 0.481273 1.61378 0.509529C1.31069 0.537786 1.02337 0.65759 0.789986 0.853025C0.556603 1.04846 0.388204 1.31028 0.30716 1.6037C0.226116 1.89712 0.236263 2.20825 0.336252 2.49576L3.2425 10.9773C3.24213 10.9804 3.24213 10.9836 3.2425 10.9867C3.24198 10.9898 3.24198 10.993 3.2425 10.9961L0.336252 19.4964C0.256176 19.7226 0.231522 19.9646 0.264359 20.2023C0.297196 20.44 0.386566 20.6663 0.524968 20.8623C0.663369 21.0583 0.846764 21.2182 1.05976 21.3286C1.27276 21.4391 1.50914 21.4968 1.74906 21.497C2.00938 21.4964 2.26512 21.4285 2.49156 21.3001L18.2331 12.2955C18.4653 12.1654 18.6587 11.9759 18.7935 11.7464C18.9283 11.5169 18.9996 11.2556 19 10.9895C19.0005 10.7233 18.9302 10.4618 18.7962 10.2319C18.6623 10.0019 18.4695 9.81167 18.2378 9.68076L18.2369 9.68451ZM1.74906 19.997V19.9886L4.57469 11.747H9.99906C10.198 11.747 10.3887 11.668 10.5294 11.5273C10.67 11.3867 10.7491 11.1959 10.7491 10.997C10.7491 10.7981 10.67 10.6073 10.5294 10.4667C10.3887 10.326 10.198 10.247 9.99906 10.247H4.58219L1.75469 2.00826L1.74906 1.99701L17.4991 10.9811L1.74906 19.997Z" fill="#BFC8DC"/>
</svg>
