<svg width="26" height="26" viewBox="0 0 26 26" fill="none" xmlns="http://www.w3.org/2000/svg">
<rect x="1" y="1" width="24" height="24" rx="12" fill="#EFE3FF"/>
<path d="M18.5 7H10.5C10.3674 7 10.2402 7.05268 10.1464 7.14645C10.0527 7.24021 10 7.36739 10 7.5V10H7.5C7.36739 10 7.24021 10.0527 7.14645 10.1464C7.05268 10.2402 7 10.3674 7 10.5V18.5C7 18.6326 7.05268 18.7598 7.14645 18.8536C7.24021 18.9473 7.36739 19 7.5 19H15.5C15.6326 19 15.7598 18.9473 15.8536 18.8536C15.9473 18.7598 16 18.6326 16 18.5V16H18.5C18.6326 16 18.7598 15.9473 18.8536 15.8536C18.9473 15.7598 19 15.6326 19 15.5V7.5C19 7.36739 18.9473 7.24021 18.8536 7.14645C18.7598 7.05268 18.6326 7 18.5 7ZM15 18H8V11H15V18ZM18 15H16V10.5C16 10.3674 15.9473 10.2402 15.8536 10.1464C15.7598 10.0527 15.6326 10 15.5 10H11V8H18V15Z" fill="#5C6C8A"/>
<path d="M15 18H8V11H15V18Z" fill="white"/>
<path d="M18 15H16V10.5C16 10.3674 15.9473 10.2402 15.8536 10.1464C15.7598 10.0527 15.6326 10 15.5 10H11V8H18V15Z" fill="white"/>
<rect x="1" y="1" width="24" height="24" rx="12" stroke="#9AA8C3"/>
</svg>
