<svg width="26" height="26" viewBox="0 0 26 26" fill="none" xmlns="http://www.w3.org/2000/svg">
<rect x="1" y="1" width="24" height="24" rx="12" fill="white"/>
<path d="M20.205 9.26501L18.705 7.79251C18.5176 7.60588 18.2638 7.5011 17.9993 7.5011C17.7349 7.5011 17.4811 7.60588 17.2937 7.79251L11.5 13.5L11.4931 13.4931L9.2031 11.2888C9.01521 11.1028 8.76135 10.9988 8.49701 10.9995C8.23267 11.0002 7.97936 11.1056 7.79247 11.2925L6.29247 12.7925C6.10527 12.98 6.00012 13.2341 6.00012 13.4991C6.00012 13.764 6.10527 14.0181 6.29247 14.2056L10.7687 18.7056C10.8616 18.7985 10.9718 18.8722 11.0932 18.9225C11.2145 18.9727 11.3446 18.9986 11.4759 18.9986C11.6072 18.9986 11.7373 18.9727 11.8586 18.9225C11.98 18.8722 12.0902 18.7985 12.1831 18.7056L20.2081 10.6819C20.3011 10.5888 20.3749 10.4782 20.4251 10.3565C20.4753 10.2348 20.5011 10.1044 20.5008 9.9728C20.5005 9.84116 20.4742 9.71088 20.4234 9.58942C20.3727 9.46796 20.2984 9.35771 20.205 9.26501ZM11.4762 18L6.99997 13.5L8.49997 12L8.50685 12.0069L10.7968 14.2113C10.9841 14.3968 11.237 14.5008 11.5006 14.5008C11.7642 14.5008 12.0171 14.3968 12.2043 14.2113L18.0037 8.50001L19.5 9.97501L11.4762 18Z" fill="#5C6C8A"/>
<path d="M11.4762 18L6.99997 13.5L8.49997 12L8.50685 12.0069L10.7968 14.2113C10.9841 14.3968 11.237 14.5008 11.5006 14.5008C11.7642 14.5008 12.0171 14.3968 12.2043 14.2113L18.0037 8.50001L19.5 9.97501L11.4762 18Z" fill="#9AA8C3"/>
<rect x="1" y="1" width="24" height="24" rx="12" stroke="#9AA8C3"/>
</svg>
