<svg xmlns="http://www.w3.org/2000/svg" width="21" height="21" viewBox="0 0 21 21" fill="none">
  <path d="M11.2454 15.0594C11.3625 15.1766 11.4283 15.3355 11.4283 15.5012C11.4283 15.6669 11.3625 15.8258 11.2454 15.943L10.4688 16.7243C9.64758 17.545 8.53395 18.0059 7.37291 18.0055C6.21187 18.0051 5.09853 17.5436 4.27781 16.7223C3.45709 15.9011 2.99622 14.7874 2.99658 13.6264C2.99695 12.4654 3.45852 11.352 4.27976 10.5313L6.16414 8.64692C6.95295 7.85748 8.01364 7.39932 9.12915 7.36621C10.2447 7.3331 11.3307 7.72753 12.1649 8.4688C12.2265 8.52338 12.2767 8.58955 12.3127 8.66353C12.3486 8.73752 12.3697 8.81786 12.3746 8.89998C12.3796 8.98211 12.3683 9.0644 12.3414 9.14215C12.3145 9.21991 12.2726 9.29162 12.218 9.35318C12.1635 9.41473 12.0973 9.46494 12.0233 9.50092C11.9493 9.53691 11.869 9.55796 11.7869 9.5629C11.7047 9.56783 11.6224 9.55654 11.5447 9.52967C11.4669 9.5028 11.3952 9.46088 11.3337 9.4063C10.7378 8.87716 9.96234 8.59564 9.16581 8.61932C8.36928 8.64299 7.61188 8.97006 7.04851 9.53364L5.16414 11.4157C4.57797 12.0018 4.24866 12.7969 4.24866 13.6258C4.24866 14.4548 4.57797 15.2498 5.16414 15.836C5.75031 16.4222 6.54532 16.7515 7.37429 16.7515C8.20326 16.7515 8.99828 16.4222 9.58445 15.836L10.361 15.0594C10.4191 15.0013 10.488 14.9552 10.5639 14.9238C10.6397 14.8923 10.7211 14.8761 10.8032 14.8761C10.8853 14.8761 10.9667 14.8923 11.0425 14.9238C11.1184 14.9552 11.1873 15.0013 11.2454 15.0594ZM16.7204 4.27818C15.899 3.45866 14.7861 2.99841 13.6259 2.99841C12.4656 2.99841 11.3527 3.45866 10.5313 4.27818L9.75476 5.05552C9.63759 5.17279 9.5718 5.33181 9.57188 5.49759C9.57195 5.66337 9.63788 5.82233 9.75515 5.9395C9.87243 6.05667 10.0314 6.12246 10.1972 6.12239C10.363 6.12231 10.522 6.05639 10.6391 5.93911L11.4157 5.16255C12.0019 4.57638 12.7969 4.24707 13.6259 4.24707C14.4548 4.24707 15.2498 4.57638 15.836 5.16255C16.4222 5.74872 16.7515 6.54374 16.7515 7.37271C16.7515 8.20168 16.4222 8.99669 15.836 9.58286L13.9516 11.4688C13.388 12.0321 12.6304 12.3587 11.8339 12.3819C11.0373 12.4052 10.262 12.1232 9.66648 11.5938C9.60492 11.5392 9.53322 11.4973 9.45546 11.4704C9.3777 11.4436 9.29541 11.4323 9.21329 11.4372C9.04744 11.4472 8.89233 11.5226 8.7821 11.6469C8.72752 11.7085 8.6856 11.7802 8.65873 11.8579C8.63186 11.9357 8.62057 12.018 8.62551 12.1001C8.63547 12.266 8.71091 12.4211 8.83523 12.5313C9.66929 13.2728 10.7552 13.6675 11.8707 13.6347C12.9862 13.6018 14.047 13.144 14.836 12.3547L16.7204 10.4704C17.5404 9.64894 18.0009 8.53571 18.0009 7.37505C18.0009 6.21439 17.5404 5.10116 16.7204 4.27974V4.27818Z" fill="#465169"/>
</svg>
