<svg xmlns="http://www.w3.org/2000/svg" width="12" height="12" viewBox="0 0 12 12" fill="none">
  <rect width="12" height="12" fill="white" fill-opacity="0.01"/>
  <path fill-rule="evenodd" clip-rule="evenodd" d="M3.71402 5.30066C3.62206 5.20534 3.51205 5.12931 3.39042 5.07701C3.26879 5.0247 3.13797 4.99717 3.0056 4.99602C2.87323 4.99487 2.74195 5.02012 2.61943 5.0703C2.49691 5.12048 2.3856 5.19458 2.292 5.28829C2.19839 5.38199 2.12437 5.49342 2.07424 5.61607C2.02411 5.73872 1.99889 5.87013 2.00004 6.00265C2.00119 6.13516 2.02869 6.26612 2.08094 6.38787C2.13319 6.50963 2.20914 6.61976 2.30435 6.71182L4.29823 8.7078C4.48518 8.8949 4.73871 9 5.00306 9C5.26741 9 5.52094 8.8949 5.7079 8.7078L9.69565 4.71584C9.79086 4.62377 9.86681 4.51365 9.91906 4.39189C9.97131 4.27013 9.99881 4.13918 9.99996 4.00666C10.0011 3.87415 9.97589 3.74274 9.92576 3.62009C9.87563 3.49744 9.80161 3.38601 9.708 3.29231C9.6144 3.1986 9.50309 3.1245 9.38057 3.07432C9.25805 3.02414 9.12677 2.99889 8.9944 3.00004C8.86203 3.00119 8.73121 3.02872 8.60958 3.08102C8.48795 3.13333 8.37794 3.20936 8.28598 3.30468L5.00306 6.59106L3.71402 5.30066Z" fill="#754CFF"/>
</svg>
