<svg width="26" height="26" viewBox="0 0 26 26" fill="none" xmlns="http://www.w3.org/2000/svg">
<rect x="1" y="1" width="24" height="24" rx="12" fill="#EFE3FF"/>
<path d="M19.2075 9.5856L16.4144 6.7931C16.3215 6.70021 16.2113 6.62653 16.0899 6.57626C15.9686 6.526 15.8385 6.50012 15.7072 6.50012C15.5759 6.50012 15.4458 6.526 15.3245 6.57626C15.2031 6.62653 15.0929 6.70021 15 6.7931L7.29313 14.5C7.19987 14.5925 7.12593 14.7026 7.0756 14.824C7.02528 14.9453 6.99959 15.0755 7.00001 15.2068V18C7.00001 18.2652 7.10536 18.5195 7.2929 18.7071C7.48043 18.8946 7.73479 19 8.00001 19H18.5C18.6326 19 18.7598 18.9473 18.8536 18.8535C18.9473 18.7598 19 18.6326 19 18.5C19 18.3674 18.9473 18.2402 18.8536 18.1464C18.7598 18.0526 18.6326 18 18.5 18H12.2075L19.2075 11C19.3004 10.9071 19.3741 10.7969 19.4243 10.6755C19.4746 10.5542 19.5005 10.4241 19.5005 10.2928C19.5005 10.1614 19.4746 10.0314 19.4243 9.91005C19.3741 9.78871 19.3004 9.67846 19.2075 9.5856ZM10.7931 18H8.00001V15.2068L13.5 9.70685L16.2931 12.5L10.7931 18ZM17 11.7931L14.2075 8.99997L15.7075 7.49997L18.5 10.2931L17 11.7931Z" fill="#5C6C8A"/>
<rect x="1" y="1" width="24" height="24" rx="12" stroke="#9AA8C3"/>
</svg>
