<svg xmlns="http://www.w3.org/2000/svg" width="20" height="20" viewBox="0 0 20 20" fill="none">
  <g clip-path="url(#clip0_564_2440)">
    <path d="M10 13.125C11.7259 13.125 13.125 11.7259 13.125 10C13.125 8.27411 11.7259 6.875 10 6.875C8.27411 6.875 6.875 8.27411 6.875 10C6.875 11.7259 8.27411 13.125 10 13.125Z" stroke="#5C6C8A" stroke-width="1.5" stroke-linecap="round" stroke-linejoin="round"/>
    <path d="M10.1601 16.1023C10.0555 16.1023 9.94999 16.1023 9.84765 16.1023L7.34374 17.5C6.36899 17.1721 5.46489 16.6632 4.6789 16L4.66952 13.1875C4.61405 13.1 4.56171 13.0117 4.51327 12.9211L2.02343 11.5031C1.82731 10.5112 1.82731 9.4904 2.02343 8.49844L4.51093 7.08438C4.56171 6.99453 4.61405 6.90547 4.66718 6.81797L4.67968 4.00547C5.46496 3.34035 6.36883 2.82957 7.34374 2.5L9.84374 3.89766C9.94843 3.89766 10.0539 3.89766 10.1562 3.89766L12.6562 2.5C13.631 2.82788 14.5351 3.33679 15.3211 4L15.3305 6.8125C15.3859 6.9 15.4383 6.98828 15.4867 7.07891L17.975 8.49609C18.1711 9.48806 18.1711 10.5088 17.975 11.5008L15.4875 12.9148C15.4367 13.0047 15.3844 13.0938 15.3312 13.1813L15.3187 15.9938C14.534 16.659 13.6307 17.17 12.6562 17.5L10.1601 16.1023Z" stroke="#5C6C8A" stroke-width="1.5" stroke-linecap="round" stroke-linejoin="round"/>
  </g>
  <defs>
    <clipPath id="clip0_564_2440">
      <rect width="20" height="20" fill="white"/>
    </clipPath>
  </defs>
</svg>
