<svg width="48" height="48" viewBox="0 0 48 48" fill="none" xmlns="http://www.w3.org/2000/svg">
<rect width="48" height="48" rx="24" fill="#EFE3FF"/>
<rect width="24" height="24" transform="translate(12 12)" fill="white" fill-opacity="0.01"/>
<path d="M32.25 35.25H15.75C15.3522 35.25 14.9706 35.092 14.6893 34.8107C14.408 34.5294 14.25 34.1478 14.25 33.75V23.25C14.25 22.8522 14.408 22.4706 14.6893 22.1893C14.9706 21.908 15.3522 21.75 15.75 21.75H32.25C32.6478 21.75 33.0294 21.908 33.3107 22.1893C33.592 22.4706 33.75 22.8522 33.75 23.25V33.75C33.75 34.1478 33.592 34.5294 33.3107 34.8107C33.0294 35.092 32.6478 35.25 32.25 35.25Z" stroke="#5A34D9" stroke-width="1.5" stroke-linecap="round" stroke-linejoin="round"/>
<path d="M18.75 21.75V18C18.75 16.6076 19.3031 15.2723 20.2877 14.2877C21.2723 13.3031 22.6076 12.75 24 12.75C25.3924 12.75 26.7277 13.3031 27.7123 14.2877C28.6969 15.2723 29.25 16.6076 29.25 18V21.75" stroke="#5A34D9" stroke-width="1.5" stroke-linecap="round" stroke-linejoin="round"/>
<path d="M24 30.75C25.2426 30.75 26.25 29.7426 26.25 28.5C26.25 27.2574 25.2426 26.25 24 26.25C22.7574 26.25 21.75 27.2574 21.75 28.5C21.75 29.7426 22.7574 30.75 24 30.75Z" stroke="#5A34D9" stroke-width="1.5" stroke-linecap="round" stroke-linejoin="round"/>
</svg>
