<svg xmlns="http://www.w3.org/2000/svg" width="20" height="21" viewBox="0 0 20 21" fill="none">
  <path d="M17.4898 9.40622L4.36484 1.91482C4.1436 1.79071 3.88983 1.73686 3.63726 1.7604C3.38468 1.78395 3.14525 1.88379 2.95076 2.04665C2.75628 2.20951 2.61594 2.42769 2.54841 2.67221C2.48087 2.91673 2.48933 3.176 2.57265 3.4156L4.99452 10.4836C4.99421 10.4862 4.99421 10.4888 4.99452 10.4914C4.99409 10.494 4.99409 10.4966 4.99452 10.4992L2.57265 17.5828C2.50592 17.7713 2.48538 17.973 2.51274 18.1711C2.5401 18.3691 2.61458 18.5577 2.72991 18.721C2.84525 18.8844 2.99808 19.0176 3.17557 19.1097C3.35307 19.2017 3.55005 19.2498 3.74999 19.25C3.96692 19.2494 4.18004 19.1929 4.36874 19.0859L17.4867 11.582C17.6802 11.4736 17.8414 11.3157 17.9537 11.1244C18.066 10.9332 18.1254 10.7155 18.1258 10.4937C18.1262 10.2719 18.0676 10.054 17.956 9.86234C17.8443 9.67069 17.6837 9.51219 17.4906 9.4031L17.4898 9.40622ZM3.74999 18V17.9929L6.10468 11.125H10.625C10.7908 11.125 10.9497 11.0591 11.0669 10.9419C11.1841 10.8247 11.25 10.6657 11.25 10.5C11.25 10.3342 11.1841 10.1752 11.0669 10.058C10.9497 9.94082 10.7908 9.87497 10.625 9.87497H6.11093L3.75468 3.00935L3.74999 2.99997L16.875 10.4867L3.74999 18Z" fill="white"/>
</svg>
