<svg width="20" height="21" viewBox="0 0 20 21" fill="none" xmlns="http://www.w3.org/2000/svg">
<g id="Pin">
<path id="Vector" d="M18.3844 6.85709L13.643 2.11646C13.5269 2.00036 13.3891 1.90826 13.2374 1.84542C13.0858 1.78259 12.9232 1.75024 12.759 1.75024C12.5949 1.75024 12.4323 1.78259 12.2806 1.84542C12.1289 1.90826 11.9911 2.00036 11.875 2.11646L7.6852 6.31959C6.85239 6.05865 4.95083 5.7438 2.96645 7.34615C2.82967 7.45613 2.71759 7.59369 2.6375 7.74986C2.55741 7.90603 2.5111 8.07732 2.50159 8.25257C2.49208 8.42783 2.51959 8.60312 2.58232 8.76704C2.64505 8.93096 2.74159 9.07983 2.86567 9.20396L6.64067 12.9774L3.30786 16.3079C3.19058 16.4251 3.1247 16.5842 3.1247 16.7501C3.1247 16.9159 3.19058 17.075 3.30786 17.1922C3.42513 17.3095 3.58419 17.3754 3.75004 17.3754C3.9159 17.3754 4.07496 17.3095 4.19223 17.1922L7.5227 13.8594L11.2954 17.6321C11.4113 17.7486 11.5491 17.841 11.7009 17.9041C11.8527 17.9673 12.0154 17.9999 12.1797 18.0001C12.2094 18.0001 12.2383 18.0001 12.268 18.0001C12.4462 17.9877 12.6196 17.9372 12.7766 17.8518C12.9335 17.7665 13.0702 17.6484 13.1774 17.5055C14.7118 15.4665 14.5641 13.8086 14.2079 12.818L18.3852 8.62506C18.5013 8.50893 18.5933 8.37107 18.6561 8.21937C18.7188 8.06767 18.7511 7.90509 18.751 7.74091C18.751 7.57673 18.7185 7.41418 18.6556 7.26253C18.5927 7.11088 18.5006 6.97311 18.3844 6.85709ZM17.5 7.74146L13.0258 12.2305C12.9334 12.3233 12.8725 12.4427 12.8516 12.5719C12.8307 12.7012 12.8509 12.8337 12.9094 12.9508C13.6485 14.4297 12.7688 15.9657 12.1797 16.7493L3.75004 8.31881C4.69379 7.55787 5.59692 7.35709 6.28754 7.35709C6.72577 7.35111 7.16038 7.43707 7.56333 7.60943C7.68088 7.66826 7.814 7.68853 7.94374 7.66735C8.07348 7.64617 8.19324 7.58463 8.28598 7.49146L12.7594 3.00006L17.5 7.74068V7.74146Z" fill="#5C6C8A"/>
</g>
</svg>
