<svg width="20" height="20" viewBox="0 0 20 20" fill="none" xmlns="http://www.w3.org/2000/svg">
<path d="M18.3844 6.35709L13.643 1.61646C13.5269 1.50036 13.3891 1.40826 13.2374 1.34542C13.0858 1.28259 12.9232 1.25024 12.759 1.25024C12.5949 1.25024 12.4323 1.28259 12.2806 1.34542C12.1289 1.40826 11.9911 1.50036 11.875 1.61646L7.6852 5.81959C6.85239 5.55865 4.95083 5.2438 2.96645 6.84615C2.82967 6.95613 2.71759 7.09369 2.6375 7.24986C2.55741 7.40603 2.5111 7.57732 2.50159 7.75257C2.49208 7.92783 2.51959 8.10312 2.58232 8.26704C2.64505 8.43096 2.74159 8.57983 2.86567 8.70396L6.64067 12.4774L3.30786 15.8079C3.19058 15.9251 3.1247 16.0842 3.1247 16.2501C3.1247 16.4159 3.19058 16.575 3.30786 16.6922C3.42513 16.8095 3.58419 16.8754 3.75004 16.8754C3.9159 16.8754 4.07496 16.8095 4.19223 16.6922L7.5227 13.3594L11.2954 17.1321C11.4113 17.2486 11.5491 17.341 11.7009 17.4041C11.8527 17.4673 12.0154 17.4999 12.1797 17.5001C12.2094 17.5001 12.2383 17.5001 12.268 17.5001C12.4462 17.4877 12.6196 17.4372 12.7766 17.3518C12.9335 17.2665 13.0702 17.1484 13.1774 17.0055C14.7118 14.9665 14.5641 13.3087 14.2079 12.318L18.3852 8.12506C18.5013 8.00893 18.5933 7.87107 18.6561 7.71937C18.7188 7.56767 18.7511 7.40509 18.751 7.24091C18.751 7.07673 18.7185 6.91418 18.6556 6.76253C18.5927 6.61088 18.5006 6.47311 18.3844 6.35709ZM17.5 7.24146L13.0258 11.7305C12.9334 11.8233 12.8725 11.9427 12.8516 12.0719C12.8307 12.2012 12.8509 12.3337 12.9094 12.4508C13.6485 13.9297 12.7688 15.4657 12.1797 16.2493L3.75004 7.81881C4.69379 7.05787 5.59692 6.85709 6.28754 6.85709C6.72577 6.85111 7.16038 6.93707 7.56333 7.10943C7.68088 7.16826 7.814 7.18853 7.94374 7.16735C8.07348 7.14617 8.19324 7.08463 8.28598 6.99146L12.7594 2.50006L17.5 7.24146Z" fill="#5C6C8A"/>
<path d="M17.5 7.24146L13.0258 11.7305C12.9334 11.8233 12.8725 11.9427 12.8516 12.0719C12.8307 12.2012 12.8509 12.3337 12.9094 12.4508C13.6485 13.9297 12.7688 15.4657 12.1797 16.2493L3.75004 7.81881C4.69379 7.05787 5.59692 6.85709 6.28754 6.85709C6.72577 6.85111 7.16038 6.93707 7.56333 7.10943C7.68088 7.16826 7.814 7.18853 7.94374 7.16735C8.07348 7.14617 8.19324 7.08463 8.28598 6.99146L12.7594 2.50006L17.5 7.24146Z" fill="#9AA8C3"/>
</svg>
