<svg width="60" height="16" viewBox="0 0 60 16" fill="none" xmlns="http://www.w3.org/2000/svg">
<g id="Frame 131" clip-path="url(#clip0_18_191)">
<g id="type">
<path d="M0 16H2.1429V11.4585C2.63472 12.1305 3.58321 12.544 4.65467 12.544C7.25425 12.544 8.92291 10.7175 8.92291 8.064C8.92291 5.41046 7.35964 3.584 4.81275 3.584C3.63591 3.584 2.66985 4.06646 2.1429 4.80738V3.72185H0V16ZM4.40876 10.7175C2.95088 10.7175 2.00238 9.66646 2.00238 8.064C2.00238 6.46154 2.95088 5.41046 4.40876 5.41046C5.83151 5.41046 6.78 6.46154 6.78 8.064C6.78 9.66646 5.83151 10.7175 4.40876 10.7175Z" fill="#F2F6FC"/>
<path d="M16.013 5.49662V3.72185H14.9767C13.835 3.72185 13.15 4.15262 12.7109 5.25538V3.72185H10.5504V12.4062H12.7109V8.30523C12.7109 6.65108 13.2554 5.49662 14.6254 5.49662H16.013Z" fill="#F2F6FC"/>
<path d="M17.3451 0V2.36062H19.6636V0H17.3451ZM17.4329 12.4062H19.5934V3.72185H17.4329V12.4062Z" fill="#F2F6FC"/>
<path d="M24.1145 12.4062H26.1345L29.384 3.72185H27.1708L25.1333 9.71815L23.0782 3.72185H20.8826L24.1145 12.4062Z" fill="#F2F6FC"/>
<path d="M33.9411 3.584C31.6401 3.584 30.1471 4.928 30.0417 6.65108H31.9738C32.0089 5.87569 32.694 5.16923 33.8357 5.16923C34.9774 5.16923 35.6448 5.77231 35.6448 6.61662C35.6448 6.96123 35.4341 7.20246 34.9949 7.20246H33.3614C31.3766 7.20246 30.0417 8.25354 30.0417 9.94216C30.0417 11.4412 31.2361 12.544 32.9926 12.544C34.2572 12.544 35.276 11.9754 35.6448 11.1138V12.4062H37.7702V6.82339C37.7702 4.85908 36.1893 3.584 33.9411 3.584ZM33.5019 10.976C32.694 10.976 32.1319 10.528 32.1319 9.856C32.1319 9.09785 32.7466 8.59816 33.66 8.59816H35.6448V8.736C35.6448 10.0455 34.8544 10.976 33.5019 10.976Z" fill="#F2F6FC"/>
<path d="M43.4856 12.544C44.557 12.544 45.5407 12.0788 46.05 11.3206V12.4062H48.193V0H46.05V4.77292C45.5407 4.06646 44.6097 3.584 43.4505 3.584C40.8333 3.584 39.27 5.41046 39.27 8.064C39.27 10.7175 40.8333 12.544 43.4856 12.544ZM43.8018 10.7175C42.3614 10.7175 41.4129 9.66646 41.4129 8.064C41.4129 6.46154 42.3614 5.41046 43.8018 5.41046C45.2421 5.41046 46.1906 6.46154 46.1906 8.064C46.1906 9.66646 45.2421 10.7175 43.8018 10.7175Z" fill="#F2F6FC"/>
<path d="M54.5805 12.544C57.2679 12.544 59.2 10.6486 59.2 8.064C59.2 5.47939 57.2679 3.584 54.5805 3.584C51.8755 3.584 49.9434 5.47939 49.9434 8.064C49.9434 10.6486 51.8755 12.544 54.5805 12.544ZM54.5805 10.7175C53.105 10.7175 52.1214 9.632 52.1214 8.064C52.1214 6.496 53.105 5.41046 54.5805 5.41046C56.0384 5.41046 57.022 6.496 57.022 8.064C57.022 9.632 56.0384 10.7175 54.5805 10.7175Z" fill="#F2F6FC"/>
</g>
</g>
<defs>
<clipPath id="clip0_18_191">
<rect width="60" height="16" fill="white"/>
</clipPath>
</defs>
</svg>
