<svg width="14" height="16" viewBox="0 0 14 16" fill="none" xmlns="http://www.w3.org/2000/svg">
<path d="M8.25 5.5C8.25 5.16848 8.1183 4.85054 7.88388 4.61612C7.64946 4.3817 7.33152 4.25 7 4.25C6.66848 4.25 6.35054 4.3817 6.11612 4.61612C5.8817 4.85054 5.75 5.16848 5.75 5.5V7H8.25V5.5Z" fill="black"/>
<path d="M13.165 1.01399L7.165 0.0139894C7.05574 -0.00401209 6.94426 -0.00401209 6.835 0.0139894L0.835 1.01399C0.601682 1.05302 0.389756 1.1735 0.236878 1.35403C0.0839997 1.53455 6.9448e-05 1.76343 0 1.99999V8.99999C0 10.8565 0.737498 12.637 2.05025 13.9497C3.36301 15.2625 5.14348 16 7 16C8.85652 16 10.637 15.2625 11.9497 13.9497C13.2625 12.637 14 10.8565 14 8.99999V1.99999C13.9999 1.76343 13.916 1.53455 13.7631 1.35403C13.6102 1.1735 13.3983 1.05302 13.165 1.01399ZM11 11C11 11.2652 10.8946 11.5196 10.7071 11.7071C10.5196 11.8946 10.2652 12 10 12H4C3.73478 12 3.48043 11.8946 3.29289 11.7071C3.10536 11.5196 3 11.2652 3 11V7.99999C3 7.73477 3.10536 7.48042 3.29289 7.29288C3.48043 7.10535 3.73478 6.99999 4 6.99999H4.25V5.49999C4.25 4.77064 4.53973 4.07117 5.05546 3.55545C5.57118 3.03972 6.27065 2.74999 7 2.74999C7.72935 2.74999 8.42882 3.03972 8.94454 3.55545C9.46027 4.07117 9.75 4.77064 9.75 5.49999V6.99999H10C10.2652 6.99999 10.5196 7.10535 10.7071 7.29288C10.8946 7.48042 11 7.73477 11 7.99999V11Z" fill="black"/>
</svg>
