<svg width="30" height="30" viewBox="0 0 30 30" fill="none" xmlns="http://www.w3.org/2000/svg">
<rect width="30" height="30" rx="2" fill="#9AA8C3"/>
<path d="M24.6488 22.875C23.2209 20.4065 21.0206 18.6365 18.4528 17.7975C19.723 17.0414 20.7098 15.8892 21.2618 14.5179C21.8137 13.1467 21.9003 11.6321 21.5082 10.2069C21.1161 8.78165 20.267 7.52454 19.0912 6.6286C17.9155 5.73266 16.4782 5.24744 15 5.24744C13.5218 5.24744 12.0845 5.73266 10.9088 6.6286C9.73306 7.52454 8.88394 8.78165 8.49183 10.2069C8.09971 11.6321 8.18629 13.1467 8.73825 14.5179C9.29021 15.8892 10.277 17.0414 11.5472 17.7975C8.97938 18.6356 6.77907 20.4056 5.35126 22.875C5.2989 22.9604 5.26417 23.0554 5.24912 23.1544C5.23407 23.2534 5.239 23.3544 5.26363 23.4515C5.28825 23.5486 5.33207 23.6397 5.3925 23.7196C5.45293 23.7995 5.52874 23.8664 5.61547 23.9165C5.7022 23.9666 5.79808 23.9988 5.89745 24.0113C5.99683 24.0237 6.0977 24.0161 6.19409 23.989C6.29049 23.9618 6.38047 23.9156 6.45872 23.8531C6.53697 23.7906 6.6019 23.713 6.6497 23.625C8.41595 20.5725 11.5378 18.75 15 18.75C18.4622 18.75 21.5841 20.5725 23.3503 23.625C23.3981 23.713 23.4631 23.7906 23.5413 23.8531C23.6196 23.9156 23.7095 23.9618 23.8059 23.989C23.9023 24.0161 24.0032 24.0237 24.1026 24.0113C24.2019 23.9988 24.2978 23.9666 24.3845 23.9165C24.4713 23.8664 24.5471 23.7995 24.6075 23.7196C24.6679 23.6397 24.7118 23.5486 24.7364 23.4515C24.761 23.3544 24.766 23.2534 24.7509 23.1544C24.7358 23.0554 24.7011 22.9604 24.6488 22.875ZM9.75001 12C9.75001 10.9616 10.0579 9.9466 10.6348 9.08324C11.2117 8.21989 12.0316 7.54698 12.9909 7.14962C13.9502 6.75226 15.0058 6.64829 16.0242 6.85086C17.0426 7.05344 17.9781 7.55345 18.7123 8.28768C19.4465 9.0219 19.9466 9.95736 20.1491 10.9758C20.3517 11.9942 20.2477 13.0498 19.8504 14.0091C19.453 14.9684 18.7801 15.7883 17.9168 16.3652C17.0534 16.9421 16.0384 17.25 15 17.25C13.6081 17.2485 12.2736 16.6949 11.2893 15.7107C10.3051 14.7264 9.7515 13.3919 9.75001 12Z" fill="white"/>
</svg>
