<svg width="32" height="32" viewBox="0 0 32 32" fill="none" xmlns="http://www.w3.org/2000/svg">
<rect width="32" height="32" rx="6" fill="#754CFF"/>
<path fill-rule="evenodd" clip-rule="evenodd" d="M13.7676 5.17747L12.5745 3.10889L19.7651 3.1411L21.3179 5.8334L19.5342 8.9583L20.9456 11.4054L24.8557 10.3753L21.8919 7.43467L22.0781 6.739L22.6956 4.4318L27.7574 9.54438L26.9536 12.5472L23.485 13.4943L22.746 16.2552L26.2236 18.2859L26.205 14.1086L26.8281 13.7485L28.8945 12.5542L28.8623 19.7523L26.1728 21.3067L23.0512 19.5211L20.5779 20.9505L21.6027 24.8487L24.5403 21.8817L25.2352 22.0681L27.54 22.6864L22.4328 27.7534L19.433 26.9488L18.487 23.4765L15.7282 22.7366L13.6997 26.2177L17.8727 26.1991L18.2324 26.8229L19.4255 28.8914L12.2349 28.8592L10.6821 26.1669L12.4658 23.042L11.0378 20.5661L7.14429 21.5918L10.1081 24.5325L9.92193 25.2281L9.30436 27.5353L4.24261 22.4227L5.04639 19.4199L8.51501 18.4728L9.25418 15.7113L5.77639 13.6806L5.79497 17.8579L5.1719 18.218L3.10547 19.4123L3.13765 12.2142L5.82715 10.6598L8.94881 12.4454L11.422 11.016L10.3973 7.11844L7.45971 10.0854L6.76476 9.89897L4.45996 9.28076L9.56722 4.21375L12.567 5.01836L13.513 8.49059L16.2885 9.23505L18.3003 5.78258L14.1273 5.80118L13.7676 5.17747ZM18.2707 12.9852L15.5081 12.2442L13.0111 13.6873L12.2647 16.4757L13.7066 18.9759L16.4912 19.7227L18.9891 18.279L19.7292 15.5141L18.2707 12.9852Z" fill="white"/>
</svg>
