<svg width="115" height="32" viewBox="0 0 115 32" fill="none" xmlns="http://www.w3.org/2000/svg">
<g clip-path="url(#clip0_232_56)">
<g clip-path="url(#clip1_232_56)">
<rect width="32" height="32" rx="6.4" fill="#754CFF"/>
<g clip-path="url(#clip2_232_56)">
<path d="M4.80005 17.6V22.4L14.4 28V24.312V23.2L8.80005 20L14.4 16.8V15.088V12L4.80005 17.6Z" fill="white"/>
<path d="M17.6 4V7.688V8.8L23.2 12L17.6 15.2V16.912V28L22.4 25.6V17.2L27.2 14.4V9.6L17.6 4Z" fill="white"/>
</g>
<path d="M44.8 25.6H47.3484V20.1502C47.9332 20.9566 49.0612 21.4528 50.3353 21.4528C53.4267 21.4528 55.4111 19.2611 55.4111 16.0768C55.4111 12.8926 53.5521 10.7008 50.5233 10.7008C49.1238 10.7008 47.975 11.2798 47.3484 12.1689V10.8662H44.8V25.6ZM50.0429 19.2611C48.3092 19.2611 47.1813 17.9998 47.1813 16.0768C47.1813 14.1539 48.3092 12.8926 50.0429 12.8926C51.7348 12.8926 52.8628 14.1539 52.8628 16.0768C52.8628 17.9998 51.7348 19.2611 50.0429 19.2611Z" fill="#0C1425"/>
<path d="M63.8426 12.996V10.8662H62.6102C61.2525 10.8662 60.4379 11.3832 59.9157 12.7065V10.8662H57.3465V21.2874H59.9157V16.3663C59.9157 14.3813 60.5632 12.996 62.1924 12.996H63.8426Z" fill="#0C1425"/>
<path d="M65.4266 6.40002V9.23276H68.1838V6.40002H65.4266ZM65.5311 21.2874H68.1003V10.8662H65.5311V21.2874Z" fill="#0C1425"/>
<path d="M73.4768 21.2874H75.8789L79.7431 10.8662H77.1112L74.6883 18.0618L72.2444 10.8662H69.6334L73.4768 21.2874Z" fill="#0C1425"/>
<path d="M85.1624 10.7008C82.4261 10.7008 80.6506 12.3136 80.5253 14.3813H82.8229C82.8647 13.4509 83.6793 12.6031 85.037 12.6031C86.3947 12.6031 87.1885 13.3268 87.1885 14.34C87.1885 14.7535 86.9378 15.043 86.4156 15.043H84.4731C82.1127 15.043 80.5253 16.3043 80.5253 18.3306C80.5253 20.1295 81.9456 21.4528 84.0344 21.4528C85.5383 21.4528 86.7498 20.7705 87.1885 19.7366V21.2874H89.7159V14.5881C89.7159 12.2309 87.836 10.7008 85.1624 10.7008ZM84.6402 19.5712C83.6793 19.5712 83.0109 19.0336 83.0109 18.2272C83.0109 17.3174 83.742 16.7178 84.8282 16.7178H87.1885V16.8832C87.1885 18.4547 86.2485 19.5712 84.6402 19.5712Z" fill="#0C1425"/>
<path d="M96.5126 21.4528C97.7868 21.4528 98.9565 20.8945 99.5622 19.9848V21.2874H102.111V6.40002H99.5622V12.1275C98.9565 11.2798 97.8494 10.7008 96.4708 10.7008C93.3586 10.7008 91.4995 12.8926 91.4995 16.0768C91.4995 19.2611 93.3586 21.4528 96.5126 21.4528ZM96.8886 19.2611C95.1758 19.2611 94.0478 17.9998 94.0478 16.0768C94.0478 14.1539 95.1758 12.8926 96.8886 12.8926C98.6014 12.8926 99.7293 14.1539 99.7293 16.0768C99.7293 17.9998 98.6014 19.2611 96.8886 19.2611Z" fill="#0C1425"/>
<path d="M109.707 21.4528C112.902 21.4528 115.2 19.1784 115.2 16.0768C115.2 12.9753 112.902 10.7008 109.707 10.7008C106.49 10.7008 104.192 12.9753 104.192 16.0768C104.192 19.1784 106.49 21.4528 109.707 21.4528ZM109.707 19.2611C107.952 19.2611 106.782 17.9584 106.782 16.0768C106.782 14.1952 107.952 12.8926 109.707 12.8926C111.44 12.8926 112.61 14.1952 112.61 16.0768C112.61 17.9584 111.44 19.2611 109.707 19.2611Z" fill="#0C1425"/>
</g>
</g>
<defs>
<clipPath id="clip0_232_56">
<rect width="115" height="32" fill="white"/>
</clipPath>
<clipPath id="clip1_232_56">
<rect width="115.2" height="32" fill="white"/>
</clipPath>
<clipPath id="clip2_232_56">
<rect width="25.6" height="25.6" fill="white" transform="translate(3.19995 3.19995)"/>
</clipPath>
</defs>
</svg>
