<svg width="100" height="24" viewBox="0 0 100 24" fill="none" xmlns="http://www.w3.org/2000/svg">
<g clip-path="url(#clip0_507_900)">
<rect width="24" height="24" rx="4.5" fill="#754CFF"/>
<path d="M3.60002 13.2V16.8L10.8 21V18.234V17.4L6.60002 15L10.8 12.6V11.316V9L3.60002 13.2Z" fill="white"/>
<path d="M13.2 3V5.766V6.6L17.4 9L13.2 11.4V12.684V21L16.8 19.2V12.9L20.4 10.8V7.2L13.2 3Z" fill="white"/>
<g clip-path="url(#clip1_507_900)">
<path d="M32 20H34.1429V15.4585C34.6347 16.1305 35.5832 16.544 36.6547 16.544C39.2543 16.544 40.9229 14.7175 40.9229 12.064C40.9229 9.41046 39.3596 7.584 36.8127 7.584C35.6359 7.584 34.6698 8.06646 34.1429 8.80738V7.72185H32V20ZM36.4088 14.7175C34.9509 14.7175 34.0024 13.6665 34.0024 12.064C34.0024 10.4615 34.9509 9.41046 36.4088 9.41046C37.8315 9.41046 38.78 10.4615 38.78 12.064C38.78 13.6665 37.8315 14.7175 36.4088 14.7175Z" fill="#0C1425"/>
<path d="M48.013 9.49662V7.72185H46.9767C45.835 7.72185 45.15 8.15262 44.7109 9.25538V7.72185H42.5504V16.4062H44.7109V12.3052C44.7109 10.6511 45.2554 9.49662 46.6254 9.49662H48.013Z" fill="#0C1425"/>
<path d="M49.3451 4V6.36062H51.6636V4H49.3451ZM49.4329 16.4062H51.5934V7.72185H49.4329V16.4062Z" fill="#0C1425"/>
<path d="M56.1145 16.4062H58.1345L61.384 7.72185H59.1708L57.1333 13.7182L55.0782 7.72185H52.8826L56.1145 16.4062Z" fill="#0C1425"/>
<path d="M65.9411 7.584C63.6401 7.584 62.1471 8.928 62.0417 10.6511H63.9738C64.0089 9.87569 64.694 9.16923 65.8357 9.16923C66.9774 9.16923 67.6448 9.77231 67.6448 10.6166C67.6448 10.9612 67.4341 11.2025 66.9949 11.2025H65.3614C63.3766 11.2025 62.0417 12.2535 62.0417 13.9422C62.0417 15.4412 63.2361 16.544 64.9926 16.544C66.2572 16.544 67.276 15.9754 67.6448 15.1138V16.4062H69.7702V10.8234C69.7702 8.85908 68.1893 7.584 65.9411 7.584ZM65.5019 14.976C64.694 14.976 64.1319 14.528 64.1319 13.856C64.1319 13.0978 64.7466 12.5982 65.66 12.5982H67.6448V12.736C67.6448 14.0455 66.8544 14.976 65.5019 14.976Z" fill="#0C1425"/>
<path d="M75.4856 16.544C76.557 16.544 77.5407 16.0788 78.05 15.3206V16.4062H80.193V4H78.05V8.77292C77.5407 8.06646 76.6097 7.584 75.4505 7.584C72.8333 7.584 71.27 9.41046 71.27 12.064C71.27 14.7175 72.8333 16.544 75.4856 16.544ZM75.8018 14.7175C74.3614 14.7175 73.4129 13.6665 73.4129 12.064C73.4129 10.4615 74.3614 9.41046 75.8018 9.41046C77.2421 9.41046 78.1906 10.4615 78.1906 12.064C78.1906 13.6665 77.2421 14.7175 75.8018 14.7175Z" fill="#0C1425"/>
<path d="M86.5805 16.544C89.2679 16.544 91.2 14.6486 91.2 12.064C91.2 9.47939 89.2679 7.584 86.5805 7.584C83.8755 7.584 81.9434 9.47939 81.9434 12.064C81.9434 14.6486 83.8755 16.544 86.5805 16.544ZM86.5805 14.7175C85.105 14.7175 84.1214 13.632 84.1214 12.064C84.1214 10.496 85.105 9.41046 86.5805 9.41046C88.0384 9.41046 89.022 10.496 89.022 12.064C89.022 13.632 88.0384 14.7175 86.5805 14.7175Z" fill="#0C1425"/>
</g>
</g>
<defs>
<clipPath id="clip0_507_900">
<rect width="100" height="24" fill="white"/>
</clipPath>
<clipPath id="clip1_507_900">
<rect width="60" height="16" fill="white" transform="translate(32 4)"/>
</clipPath>
</defs>
</svg>
