<svg width="24" height="18" viewBox="0 0 24 18" fill="none" xmlns="http://www.w3.org/2000/svg">
<path d="M6.81571 3.17647C8.04834 1.96638 9.71601 0.983194 11.5287 0.45378V0C8.55589 0.226888 5.7281 1.43698 3.62538 3.32773C1.30514 5.44538 0 8.16807 0 11.1933C0 13.0084 0.507553 14.6723 1.37764 15.8824C2.32024 17.3193 3.77039 18 5.51057 18C6.88822 18 8.19335 17.4706 9.13595 16.563C10.0785 15.6555 10.5861 14.3698 10.5861 12.8571C10.5861 11.6471 10.2236 10.5882 9.42598 9.68068C8.77341 8.84874 7.75831 8.31933 6.59819 8.09244H4.35045C4.56798 6.27731 5.36556 4.61344 6.81571 3.17647ZM19.287 3.17647C20.5196 1.96638 22.1873 0.983194 24 0.45378V0C21.0272 0.226888 18.1994 1.43698 16.0967 3.32773C13.7764 5.44538 12.4713 8.16807 12.4713 11.1933C12.4713 13.0084 12.9789 14.6723 13.8489 15.8824C14.7915 17.3193 16.2417 18 17.9819 18C19.3595 18 20.6647 17.4706 21.6073 16.563C22.5498 15.6555 23.0574 14.3698 23.0574 12.8571C23.0574 11.6471 22.6949 10.5882 21.8973 9.68068C21.2447 8.84874 20.2296 8.31933 19.0695 8.09244H16.8218C17.0393 6.27731 17.8369 4.61344 19.287 3.17647Z" fill="#A080FF"/>
</svg>
