<svg width="26" height="26" viewBox="0 0 26 26" fill="none" xmlns="http://www.w3.org/2000/svg">
<rect x="1" y="1" width="24" height="24" rx="12" fill="white"/>
<path d="M10.5 11.5H7.5C7.36739 11.5 7.24021 11.4473 7.14645 11.3536C7.05268 11.2598 7 11.1326 7 11V8C7 7.86739 7.05268 7.74021 7.14645 7.64645C7.24021 7.55268 7.36739 7.5 7.5 7.5C7.63261 7.5 7.75979 7.55268 7.85355 7.64645C7.94732 7.74021 8 7.86739 8 8V9.49062C8.96688 8.4 10.6631 7 13 7C15.6763 7 17.2863 8.57938 17.3538 8.64625C17.4477 8.7399 17.5007 8.86706 17.5009 8.99974C17.5011 9.13242 17.4487 9.25976 17.355 9.35375C17.2613 9.44774 17.1342 9.50067 17.0015 9.5009C16.8688 9.50114 16.7415 9.44865 16.6475 9.355C16.6306 9.33812 15.245 8 13 8C10.8125 8 9.23562 9.54063 8.465 10.5H10.5C10.6326 10.5 10.7598 10.5527 10.8536 10.6464C10.9473 10.7402 11 10.8674 11 11C11 11.1326 10.9473 11.2598 10.8536 11.3536C10.7598 11.4473 10.6326 11.5 10.5 11.5ZM18.5 14.5H15.5C15.3674 14.5 15.2402 14.5527 15.1464 14.6464C15.0527 14.7402 15 14.8674 15 15C15 15.1326 15.0527 15.2598 15.1464 15.3536C15.2402 15.4473 15.3674 15.5 15.5 15.5H17.535C16.7644 16.4594 15.1875 18 13 18C10.755 18 9.36937 16.6619 9.3525 16.645C9.25851 16.5513 9.13117 16.4989 8.99849 16.4991C8.86581 16.4993 8.73865 16.5523 8.645 16.6462C8.55135 16.7402 8.49886 16.8676 8.4991 17.0003C8.49933 17.1329 8.55226 17.2601 8.64625 17.3538C8.71375 17.4206 10.3238 19 13 19C15.3369 19 17.0331 17.6 18 16.5094V18C18 18.1326 18.0527 18.2598 18.1464 18.3536C18.2402 18.4473 18.3674 18.5 18.5 18.5C18.6326 18.5 18.7598 18.4473 18.8536 18.3536C18.9473 18.2598 19 18.1326 19 18V15C19 14.8674 18.9473 14.7402 18.8536 14.6464C18.7598 14.5527 18.6326 14.5 18.5 14.5Z" fill="#5C6C8A"/>
<rect x="1" y="1" width="24" height="24" rx="12" stroke="#9AA8C3"/>
</svg>
