<svg width="26" height="26" viewBox="0 0 26 26" fill="none" xmlns="http://www.w3.org/2000/svg">
<rect x="1" y="1" width="24" height="24" rx="12" fill="white"/>
<path d="M13.5 7V9C13.5 9.13261 13.4473 9.25979 13.3536 9.35355C13.2598 9.44732 13.1326 9.5 13 9.5C12.8674 9.5 12.7402 9.44732 12.6464 9.35355C12.5527 9.25979 12.5 9.13261 12.5 9V7C12.5 6.86739 12.5527 6.74021 12.6464 6.64645C12.7402 6.55268 12.8674 6.5 13 6.5C13.1326 6.5 13.2598 6.55268 13.3536 6.64645C13.4473 6.74021 13.5 6.86739 13.5 7ZM19 12.5H17C16.8674 12.5 16.7402 12.5527 16.6464 12.6464C16.5527 12.7402 16.5 12.8674 16.5 13C16.5 13.1326 16.5527 13.2598 16.6464 13.3536C16.7402 13.4473 16.8674 13.5 17 13.5H19C19.1326 13.5 19.2598 13.4473 19.3536 13.3536C19.4473 13.2598 19.5 13.1326 19.5 13C19.5 12.8674 19.4473 12.7402 19.3536 12.6464C19.2598 12.5527 19.1326 12.5 19 12.5ZM16.1819 15.475C16.0873 15.3852 15.9615 15.3359 15.8311 15.3375C15.7007 15.3392 15.5761 15.3917 15.4839 15.4839C15.3917 15.5761 15.3392 15.7007 15.3375 15.8311C15.3359 15.9615 15.3852 16.0873 15.475 16.1819L16.8888 17.5962C16.9826 17.6901 17.1098 17.7428 17.2425 17.7428C17.3752 17.7428 17.5024 17.6901 17.5962 17.5962C17.6901 17.5024 17.7428 17.3752 17.7428 17.2425C17.7428 17.1098 17.6901 16.9826 17.5962 16.8888L16.1819 15.475ZM13 16.5C12.8674 16.5 12.7402 16.5527 12.6464 16.6464C12.5527 16.7402 12.5 16.8674 12.5 17V19C12.5 19.1326 12.5527 19.2598 12.6464 19.3536C12.7402 19.4473 12.8674 19.5 13 19.5C13.1326 19.5 13.2598 19.4473 13.3536 19.3536C13.4473 19.2598 13.5 19.1326 13.5 19V17C13.5 16.8674 13.4473 16.7402 13.3536 16.6464C13.2598 16.5527 13.1326 16.5 13 16.5ZM9.81812 15.475L8.40375 16.8888C8.30993 16.9826 8.25722 17.1098 8.25722 17.2425C8.25722 17.3752 8.30993 17.5024 8.40375 17.5962C8.49757 17.6901 8.62482 17.7428 8.7575 17.7428C8.89018 17.7428 9.01743 17.6901 9.11125 17.5962L10.525 16.1819C10.6148 16.0873 10.6641 15.9615 10.6625 15.8311C10.6608 15.7007 10.6083 15.5761 10.5161 15.4839C10.4239 15.3917 10.2993 15.3392 10.1689 15.3375C10.0385 15.3359 9.91266 15.3852 9.81812 15.475ZM9.5 13C9.5 12.8674 9.44732 12.7402 9.35355 12.6464C9.25979 12.5527 9.13261 12.5 9 12.5H7C6.86739 12.5 6.74021 12.5527 6.64645 12.6464C6.55268 12.7402 6.5 12.8674 6.5 13C6.5 13.1326 6.55268 13.2598 6.64645 13.3536C6.74021 13.4473 6.86739 13.5 7 13.5H9C9.13261 13.5 9.25979 13.4473 9.35355 13.3536C9.44732 13.2598 9.5 13.1326 9.5 13ZM9.11125 8.40375C9.01743 8.30993 8.89018 8.25722 8.7575 8.25722C8.62482 8.25722 8.49757 8.30993 8.40375 8.40375C8.30993 8.49757 8.25722 8.62482 8.25722 8.7575C8.25722 8.89018 8.30993 9.01743 8.40375 9.11125L9.81812 10.525C9.91266 10.6148 10.0385 10.6641 10.1689 10.6625C10.2993 10.6608 10.4239 10.6083 10.5161 10.5161C10.6083 10.4239 10.6608 10.2993 10.6625 10.1689C10.6641 10.0385 10.6148 9.91266 10.525 9.81812L9.11125 8.40375Z" fill="#5C6C8A"/>
<rect x="1" y="1" width="24" height="24" rx="12" stroke="#9AA8C3"/>
</svg>
