<svg width="26" height="26" viewBox="0 0 26 26" fill="none" xmlns="http://www.w3.org/2000/svg">
<rect x="1" y="1" width="24" height="24" rx="12" fill="#EFE3FF"/>
<path d="M11.5 15.5V18.5C11.5 18.6326 11.4473 18.7598 11.3536 18.8536C11.2598 18.9473 11.1326 19 11 19H8C7.86739 19 7.74021 18.9473 7.64645 18.8536C7.55268 18.7598 7.5 18.6326 7.5 18.5C7.5 18.3674 7.55268 18.2402 7.64645 18.1464C7.74021 18.0527 7.86739 18 8 18H9.49062C8.4 17.0331 7 15.3369 7 13C7 10.3237 8.57938 8.71375 8.64625 8.64625C8.7399 8.55226 8.86706 8.49933 8.99974 8.4991C9.13242 8.49886 9.25976 8.55135 9.35375 8.645C9.44774 8.73866 9.50067 8.86581 9.5009 8.99849C9.50114 9.13117 9.44865 9.25851 9.355 9.3525C9.33812 9.36938 8 10.755 8 13C8 15.1875 9.54063 16.7644 10.5 17.535V15.5C10.5 15.3674 10.5527 15.2402 10.6464 15.1464C10.7402 15.0527 10.8674 15 11 15C11.1326 15 11.2598 15.0527 11.3536 15.1464C11.4473 15.2402 11.5 15.3674 11.5 15.5ZM14.5 7.5V10.5C14.5 10.6326 14.5527 10.7598 14.6464 10.8536C14.7402 10.9473 14.8674 11 15 11C15.1326 11 15.2598 10.9473 15.3536 10.8536C15.4473 10.7598 15.5 10.6326 15.5 10.5V8.465C16.4594 9.23563 18 10.8125 18 13C18 15.245 16.6619 16.6306 16.645 16.6475C16.5513 16.7415 16.4989 16.8688 16.4991 17.0015C16.4993 17.1342 16.5523 17.2613 16.6462 17.355C16.7402 17.4487 16.8676 17.5011 17.0003 17.5009C17.1329 17.5007 17.2601 17.4477 17.3538 17.3537C17.4206 17.2862 19 15.6762 19 13C19 10.6631 17.6 8.96688 16.5094 8H18C18.1326 8 18.2598 7.94732 18.3536 7.85355C18.4473 7.75979 18.5 7.63261 18.5 7.5C18.5 7.36739 18.4473 7.24021 18.3536 7.14645C18.2598 7.05268 18.1326 7 18 7H15C14.8674 7 14.7402 7.05268 14.6464 7.14645C14.5527 7.24021 14.5 7.36739 14.5 7.5Z" fill="#5C6C8A"/>
<rect x="1" y="1" width="24" height="24" rx="12" stroke="#9AA8C3"/>
</svg>
