<svg width="24" height="24" viewBox="0 0 24 24" fill="none" xmlns="http://www.w3.org/2000/svg">
<g id="Nav Page Icons">
<path id="Vector" d="M17.7458 10.9191C18.6192 10.9184 19.4807 11.1214 20.2619 11.512C21.043 11.9026 21.7224 12.47 22.2458 13.1691" stroke="#BFC8DC" stroke-width="1.5" stroke-linecap="round" stroke-linejoin="round"/>
<path id="Vector_2" d="M1.24585 13.1691C1.76935 12.47 2.44866 11.9026 3.22983 11.512C4.01099 11.1214 4.87248 10.9184 5.74585 10.9191" stroke="#BFC8DC" stroke-width="1.5" stroke-linecap="round" stroke-linejoin="round"/>
<path id="Vector_3" d="M11.7458 16.9191C13.8169 16.9191 15.4958 15.2401 15.4958 13.1691C15.4958 11.098 13.8169 9.41907 11.7458 9.41907C9.67478 9.41907 7.99585 11.098 7.99585 13.1691C7.99585 15.2401 9.67478 16.9191 11.7458 16.9191Z" stroke="#BFC8DC" stroke-width="1.5" stroke-linecap="round" stroke-linejoin="round"/>
<path id="Vector_4" d="M6.49585 19.9191C7.03425 19.0054 7.80175 18.2481 8.7225 17.722C9.64325 17.1958 10.6854 16.9191 11.7458 16.9191C12.8063 16.9191 13.8484 17.1958 14.7692 17.722C15.6899 18.2481 16.4575 19.0054 16.9958 19.9191" stroke="#BFC8DC" stroke-width="1.5" stroke-linecap="round" stroke-linejoin="round"/>
<path id="Vector_5" d="M14.8396 7.16907C14.9799 6.62585 15.2696 6.13284 15.676 5.74604C16.0824 5.35924 16.5891 5.09414 17.1386 4.98086C17.6881 4.86758 18.2583 4.91065 18.7845 5.10518C19.3108 5.29971 19.7719 5.6379 20.1156 6.08135C20.4593 6.52481 20.6717 7.05574 20.7288 7.61387C20.7858 8.17199 20.6853 8.73494 20.4385 9.23878C20.1917 9.74261 19.8085 10.1671 19.3326 10.4642C18.8566 10.7612 18.3069 10.9188 17.7458 10.9191" stroke="#BFC8DC" stroke-width="1.5" stroke-linecap="round" stroke-linejoin="round"/>
<path id="Vector_6" d="M5.7458 10.9191C5.18477 10.9188 4.63505 10.7612 4.15909 10.4642C3.68312 10.1671 3.29998 9.74261 3.05318 9.23878C2.80638 8.73494 2.7058 8.17199 2.76288 7.61387C2.81996 7.05574 3.0324 6.52481 3.37607 6.08135C3.71975 5.6379 4.18089 5.29971 4.70712 5.10518C5.23335 4.91065 5.80359 4.86758 6.35307 4.98086C6.90255 5.09414 7.40925 5.35924 7.81564 5.74604C8.22202 6.13284 8.51179 6.62585 8.65205 7.16907" stroke="#BFC8DC" stroke-width="1.5" stroke-linecap="round" stroke-linejoin="round"/>
</g>
</svg>
