<svg width="20" height="20" viewBox="0 0 20 20" fill="none" xmlns="http://www.w3.org/2000/svg">
<path d="M13.7499 12.4999C13.333 12.4998 12.9203 12.5833 12.5362 12.7456C12.1522 12.9078 11.8046 13.1455 11.514 13.4445L7.91244 11.1296C8.19575 10.4031 8.19575 9.59673 7.91244 8.87025L11.514 6.55541C12.055 7.10956 12.7825 7.4431 13.5554 7.49137C14.3283 7.53963 15.0916 7.29917 15.6973 6.81662C16.3031 6.33406 16.708 5.64378 16.8337 4.87962C16.9594 4.11545 16.7969 3.33184 16.3776 2.6807C15.9584 2.02956 15.3123 1.55729 14.5646 1.35545C13.8169 1.1536 13.021 1.23657 12.331 1.58826C11.641 1.93995 11.1062 2.53531 10.8303 3.25892C10.5543 3.98252 10.5569 4.78281 10.8374 5.50463L7.23588 7.81947C6.80218 7.37422 6.24556 7.06841 5.63716 6.94114C5.02876 6.81388 4.39624 6.87093 3.82043 7.10502C3.24463 7.3391 2.75171 7.73958 2.40469 8.25525C2.05767 8.77093 1.87231 9.37837 1.87231 9.99994C1.87231 10.6215 2.05767 11.2289 2.40469 11.7446C2.75171 12.2603 3.24463 12.6608 3.82043 12.8949C4.39624 13.1289 5.02876 13.186 5.63716 13.0587C6.24556 12.9315 6.80218 12.6257 7.23588 12.1804L10.8374 14.4952C10.5962 15.1175 10.5605 15.8007 10.7356 16.4448C10.9107 17.0888 11.2874 17.6599 11.8105 18.0744C12.3336 18.4888 12.9757 18.7249 13.6427 18.7481C14.3098 18.7712 14.9667 18.5802 15.5173 18.203C16.0679 17.8258 16.4833 17.2822 16.7026 16.6518C16.9219 16.0215 16.9336 15.3374 16.7361 14.6999C16.5385 14.0624 16.142 13.5049 15.6047 13.109C15.0673 12.7131 14.4174 12.4997 13.7499 12.4999ZM13.7499 2.49994C14.1208 2.49994 14.4833 2.60991 14.7916 2.81593C15.1 3.02196 15.3403 3.3148 15.4822 3.65741C15.6241 4.00002 15.6613 4.37702 15.5889 4.74073C15.5166 5.10445 15.338 5.43854 15.0758 5.70076C14.8135 5.96299 14.4795 6.14156 14.1157 6.21391C13.752 6.28626 13.375 6.24913 13.0324 6.10721C12.6898 5.9653 12.397 5.72498 12.1909 5.41663C11.9849 5.10829 11.8749 4.74578 11.8749 4.37494C11.8749 3.87766 12.0725 3.40074 12.4241 3.04911C12.7757 2.69748 13.2527 2.49994 13.7499 2.49994ZM4.99994 11.8749C4.6291 11.8749 4.26659 11.765 3.95825 11.5589C3.64991 11.3529 3.40958 11.0601 3.26767 10.7175C3.12576 10.3749 3.08862 9.99786 3.16097 9.63414C3.23332 9.27043 3.4119 8.93634 3.67412 8.67411C3.93634 8.41189 4.27043 8.23331 4.63415 8.16097C4.99786 8.08862 5.37486 8.12575 5.71747 8.26766C6.06009 8.40958 6.35292 8.6499 6.55895 8.95824C6.76498 9.26659 6.87494 9.6291 6.87494 9.99994C6.87494 10.4972 6.6774 10.9741 6.32577 11.3258C5.97414 11.6774 5.49722 11.8749 4.99994 11.8749ZM13.7499 17.4999C13.3791 17.4999 13.0166 17.39 12.7083 17.1839C12.3999 16.9779 12.1596 16.6851 12.0177 16.3425C11.8758 15.9999 11.8386 15.6229 11.911 15.2591C11.9833 14.8954 12.1619 14.5613 12.4241 14.2991C12.6863 14.0369 13.0204 13.8583 13.3841 13.786C13.7479 13.7136 14.1249 13.7507 14.4675 13.8927C14.8101 14.0346 15.1029 14.2749 15.309 14.5832C15.515 14.8916 15.6249 15.2541 15.6249 15.6249C15.6249 16.1222 15.4274 16.5991 15.0758 16.9508C14.7241 17.3024 14.2472 17.4999 13.7499 17.4999Z" fill="#5C6C8A"/>
</svg>
