<svg width="20" height="20" viewBox="0 0 20 20" fill="none" xmlns="http://www.w3.org/2000/svg">
<g id="Users">
<path id="Vector" d="M9.16013 12.3374C9.99779 11.7798 10.6338 10.9674 10.974 10.0203C11.3142 9.07325 11.3406 8.04185 11.0493 7.07862C10.758 6.1154 10.1644 5.27149 9.35641 4.67169C8.54838 4.07189 7.56879 3.74805 6.56248 3.74805C5.55617 3.74805 4.57657 4.07189 3.76855 4.67169C2.96053 5.27149 2.36698 6.1154 2.07567 7.07862C1.78437 8.04185 1.81078 9.07325 2.15099 10.0203C2.49121 10.9674 3.12716 11.7798 3.96482 12.3374C2.44958 12.8959 1.15553 13.9293 0.275759 15.2835C0.229521 15.3523 0.197405 15.4295 0.181276 15.5107C0.165147 15.592 0.165327 15.6756 0.181807 15.7568C0.198286 15.838 0.230736 15.915 0.27727 15.9836C0.323804 16.0521 0.383494 16.1107 0.45287 16.1559C0.522246 16.2012 0.599925 16.2322 0.68139 16.2472C0.762856 16.2621 0.846484 16.2607 0.927412 16.2431C1.00834 16.2255 1.08496 16.1919 1.1528 16.1444C1.22065 16.0969 1.27838 16.0364 1.32263 15.9664C1.89013 15.0935 2.66666 14.3763 3.58173 13.8798C4.49679 13.3833 5.52139 13.1232 6.56248 13.1232C7.60357 13.1232 8.62817 13.3833 9.54323 13.8798C10.4583 14.3763 11.2348 15.0935 11.8023 15.9664C11.894 16.1026 12.0356 16.1973 12.1965 16.23C12.3575 16.2626 12.5248 16.2307 12.6623 16.1409C12.7999 16.0512 12.8966 15.911 12.9315 15.7506C12.9665 15.5901 12.9369 15.4224 12.8492 15.2835C11.9694 13.9293 10.6754 12.8959 9.16013 12.3374ZM3.12498 8.43745C3.12498 7.75758 3.32658 7.09297 3.7043 6.52768C4.08202 5.96238 4.61888 5.52179 5.247 5.26161C5.87512 5.00144 6.56629 4.93336 7.2331 5.066C7.89991 5.19864 8.51241 5.52603 8.99316 6.00677C9.4739 6.48751 9.80129 7.10002 9.93393 7.76683C10.0666 8.43364 9.99849 9.1248 9.73831 9.75292C9.47814 10.381 9.03754 10.9179 8.47225 11.2956C7.90696 11.6733 7.24235 11.8749 6.56248 11.8749C5.65111 11.8739 4.77737 11.5114 4.13294 10.867C3.48851 10.2226 3.12601 9.34881 3.12498 8.43745ZM19.5422 16.1484C19.4033 16.2389 19.2342 16.2706 19.0721 16.2365C18.9099 16.2023 18.7679 16.1052 18.6773 15.9664C18.1105 15.093 17.3341 14.3755 16.4188 13.8791C15.5036 13.3828 14.4786 13.1236 13.4375 13.1249C13.2717 13.1249 13.1127 13.0591 12.9955 12.9419C12.8783 12.8247 12.8125 12.6657 12.8125 12.4999C12.8125 12.3342 12.8783 12.1752 12.9955 12.058C13.1127 11.9408 13.2717 11.8749 13.4375 11.8749C13.9437 11.8745 14.4436 11.7622 14.9014 11.5461C15.3592 11.3301 15.7636 11.0156 16.0858 10.6251C16.4079 10.2346 16.6399 9.77779 16.765 9.28727C16.8902 8.79676 16.9055 8.28466 16.8097 7.78756C16.714 7.29047 16.5097 6.82064 16.2114 6.41166C15.9131 6.00268 15.5281 5.66464 15.084 5.42169C14.6399 5.17874 14.1476 5.03688 13.6423 5.00625C13.137 4.97562 12.6311 5.05696 12.1609 5.24448C12.0842 5.27762 12.0017 5.29506 11.9182 5.29577C11.8347 5.29647 11.7519 5.28043 11.6746 5.24859C11.5974 5.21675 11.5274 5.16975 11.4686 5.11038C11.4099 5.05101 11.3636 4.98046 11.3326 4.90291C11.3016 4.82536 11.2864 4.74238 11.288 4.65887C11.2896 4.57536 11.3079 4.49302 11.3419 4.41671C11.3758 4.3404 11.4248 4.27167 11.4857 4.21458C11.5467 4.15749 11.6185 4.1132 11.6969 4.08432C12.773 3.65514 13.9699 3.6397 15.0568 4.04097C16.1437 4.44224 17.0434 5.23179 17.5825 6.25731C18.1215 7.28282 18.2617 8.47164 17.976 9.59442C17.6903 10.7172 16.9988 11.6944 16.0351 12.3374C17.5504 12.8959 18.8444 13.9293 19.7242 15.2835C19.8147 15.4224 19.8464 15.5915 19.8123 15.7537C19.7781 15.9158 19.681 16.0578 19.5422 16.1484Z" fill="#DDE3EE"/>
</g>
</svg>
