<svg width="16" height="15" viewBox="0 0 16 15" fill="none" xmlns="http://www.w3.org/2000/svg">
<g id="Group 3">
<path id="Vector" d="M15.4379 5.43781V1.31251C15.4379 1.16332 15.3786 1.02025 15.2731 0.914759C15.1676 0.80927 15.0246 0.750007 14.8754 0.750007H10.7504C10.6012 0.750007 10.4581 0.80927 10.3526 0.914759C10.2471 1.02025 10.1879 1.16332 10.1879 1.31251C10.1879 1.46169 10.2471 1.60476 10.3526 1.71025C10.4581 1.81574 10.6012 1.875 10.7504 1.875H13.5169L10.3524 5.03953C10.2468 5.14507 10.1876 5.28823 10.1876 5.43749C10.1876 5.58676 10.2468 5.72991 10.3524 5.83546C10.4579 5.94101 10.6011 6.00031 10.7504 6.00031C10.8996 6.00031 11.0428 5.94101 11.1483 5.83546L14.3129 2.67024V5.43781C14.3129 5.58699 14.3721 5.73006 14.4776 5.83555C14.5831 5.94104 14.7262 6.00031 14.8754 6.00031C15.0246 6.00031 15.1676 5.94104 15.2731 5.83555C15.3786 5.73006 15.4379 5.58699 15.4379 5.43781Z" fill="#BFC8DC"/>
<path id="Subtract" d="M8.68756 1.31254C8.68756 1.00188 8.43572 0.750046 8.12506 0.750046H1.93758C1.63921 0.750046 1.35306 0.868572 1.14209 1.07955C0.931108 1.29053 0.812581 1.57667 0.812581 1.87504V13.125C0.811284 13.3395 0.871972 13.5499 0.98735 13.7307C1.10273 13.9116 1.26789 14.0553 1.46297 14.1445C1.61163 14.2138 1.77359 14.2498 1.93758 14.25C2.20168 14.2494 2.45701 14.1552 2.65828 13.9842C2.66164 13.982 2.66471 13.9794 2.66743 13.9765L4.92586 12H14.3126C14.611 12 14.8971 11.8815 15.1081 11.6705C15.3191 11.4595 15.4376 11.1734 15.4376 10.875V8.06253C15.4376 7.75187 15.1857 7.50003 14.8751 7.50003C14.5644 7.50003 14.3126 7.75187 14.3126 8.06253V10.875H4.92586C4.66094 10.8749 4.40447 10.9683 4.20164 11.1387L4.19321 11.1464L1.93758 13.125V1.87504H8.12506C8.43572 1.87504 8.68756 1.6232 8.68756 1.31254Z" fill="#BFC8DC"/>
</g>
</svg>
