<svg width="15" height="14" viewBox="0 0 15 14" fill="none" xmlns="http://www.w3.org/2000/svg">
<g id="Group 2">
<path id="Vector" d="M9.43756 0.812498V4.9378C9.43756 5.08698 9.49682 5.23006 9.60231 5.33555C9.7078 5.44103 9.85088 5.5003 10.0001 5.5003H14.1251C14.2742 5.5003 14.4173 5.44103 14.5228 5.33555C14.6283 5.23006 14.6876 5.08698 14.6876 4.9378C14.6876 4.78862 14.6283 4.64554 14.5228 4.54005C14.4173 4.43456 14.2742 4.3753 14.1251 4.3753H11.3585L14.523 1.21078C14.6286 1.10523 14.6879 0.962078 14.6879 0.812811C14.6879 0.663544 14.6286 0.520391 14.523 0.414844C14.4175 0.309296 14.2743 0.25 14.1251 0.25C13.9758 0.25 13.8326 0.309296 13.7271 0.414844L10.5626 3.58007V0.812498C10.5626 0.663315 10.5033 0.520241 10.3978 0.414752C10.2923 0.309263 10.1492 0.25 10.0001 0.25C9.85088 0.25 9.7078 0.309263 9.60231 0.414752C9.49682 0.520241 9.43756 0.663315 9.43756 0.812498Z" fill="#BFC8DC"/>
<path id="Subtract" d="M7.93756 0.812498C7.93756 0.501839 7.68572 0.25 7.37506 0.25H1.18758C0.889213 0.25 0.603065 0.368526 0.392086 0.579504C0.181108 0.790482 0.0625814 1.07663 0.0625814 1.375V12.625C0.0612841 12.8395 0.121972 13.0498 0.23735 13.2307C0.352728 13.4116 0.517887 13.5552 0.712972 13.6445C0.861633 13.7137 1.02359 13.7497 1.18758 13.75C1.45168 13.7493 1.70701 13.6552 1.90828 13.4842C1.91164 13.482 1.91471 13.4794 1.91743 13.4764L4.17586 11.5H13.5626C13.861 11.5 14.1471 11.3814 14.3581 11.1705C14.5691 10.9595 14.6876 10.6733 14.6876 10.375V7.56248C14.6876 7.25182 14.4357 6.99998 14.1251 6.99998C13.8144 6.99998 13.5626 7.25182 13.5626 7.56248V10.375H4.17586C3.91094 10.3748 3.65447 10.4682 3.45164 10.6386L3.44321 10.6464L1.18758 12.625V1.375H7.37506C7.68572 1.375 7.93756 1.12316 7.93756 0.812498Z" fill="#BFC8DC"/>
</g>
</svg>
