<svg xmlns="http://www.w3.org/2000/svg" width="20" height="20" viewBox="0 0 20 20" fill="none">
  <path d="M13.7499 12.5C13.333 12.4999 12.9203 12.5834 12.5362 12.7456C12.1522 12.9079 11.8046 13.1455 11.514 13.4445L7.91244 11.1297C8.19575 10.4032 8.19575 9.5968 7.91244 8.87031L11.514 6.55547C12.055 7.10962 12.7825 7.44317 13.5554 7.49143C14.3283 7.53969 15.0916 7.29923 15.6973 6.81668C16.3031 6.33412 16.708 5.64384 16.8337 4.87968C16.9594 4.11551 16.7969 3.3319 16.3776 2.68076C15.9584 2.02962 15.3123 1.55735 14.5646 1.35551C13.8169 1.15366 13.021 1.23663 12.331 1.58832C11.641 1.94002 11.1062 2.53538 10.8303 3.25898C10.5543 3.98258 10.5569 4.78287 10.8374 5.50469L7.23588 7.81953C6.80218 7.37428 6.24556 7.06847 5.63716 6.94121C5.02876 6.81394 4.39624 6.87099 3.82043 7.10508C3.24463 7.33916 2.75171 7.73964 2.40469 8.25531C2.05767 8.77099 1.87231 9.37843 1.87231 10C1.87231 10.6216 2.05767 11.229 2.40469 11.7447C2.75171 12.2604 3.24463 12.6608 3.82043 12.8949C4.39624 13.129 5.02876 13.1861 5.63716 13.0588C6.24556 12.9315 6.80218 12.6257 7.23588 12.1805L10.8374 14.4953C10.5962 15.1176 10.5605 15.8008 10.7356 16.4448C10.9107 17.0889 11.2874 17.6599 11.8105 18.0744C12.3336 18.4889 12.9757 18.725 13.6427 18.7481C14.3098 18.7713 14.9667 18.5802 15.5173 18.203C16.0679 17.8258 16.4833 17.2822 16.7026 16.6519C16.9219 16.0215 16.9336 15.3375 16.7361 14.7C16.5385 14.0625 16.142 13.5049 15.6047 13.1091C15.0673 12.7132 14.4174 12.4998 13.7499 12.5ZM13.7499 2.5C14.1208 2.5 14.4833 2.60997 14.7916 2.81599C15.1 3.02202 15.3403 3.31486 15.4822 3.65747C15.6241 4.00008 15.6613 4.37708 15.5889 4.74079C15.5166 5.10451 15.338 5.4386 15.0758 5.70083C14.8135 5.96305 14.4795 6.14162 14.1157 6.21397C13.752 6.28632 13.375 6.24919 13.0324 6.10727C12.6898 5.96536 12.397 5.72504 12.1909 5.41669C11.9849 5.10835 11.8749 4.74584 11.8749 4.375C11.8749 3.87772 12.0725 3.40081 12.4241 3.04917C12.7757 2.69754 13.2527 2.5 13.7499 2.5ZM4.99994 11.875C4.6291 11.875 4.26659 11.765 3.95825 11.559C3.64991 11.353 3.40958 11.0601 3.26767 10.7175C3.12576 10.3749 3.08862 9.99792 3.16097 9.6342C3.23332 9.27049 3.4119 8.9364 3.67412 8.67417C3.93634 8.41195 4.27043 8.23337 4.63415 8.16103C4.99786 8.08868 5.37486 8.12581 5.71747 8.26773C6.06009 8.40964 6.35292 8.64996 6.55895 8.95831C6.76498 9.26665 6.87494 9.62916 6.87494 10C6.87494 10.4973 6.6774 10.9742 6.32577 11.3258C5.97414 11.6775 5.49722 11.875 4.99994 11.875ZM13.7499 17.5C13.3791 17.5 13.0166 17.39 12.7083 17.184C12.3999 16.978 12.1596 16.6851 12.0177 16.3425C11.8758 15.9999 11.8386 15.6229 11.911 15.2592C11.9833 14.8955 12.1619 14.5614 12.4241 14.2992C12.6863 14.0369 13.0204 13.8584 13.3841 13.786C13.7479 13.7137 14.1249 13.7508 14.4675 13.8927C14.8101 14.0346 15.1029 14.275 15.309 14.5833C15.515 14.8916 15.6249 15.2542 15.6249 15.625C15.6249 16.1223 15.4274 16.5992 15.0758 16.9508C14.7241 17.3025 14.2472 17.5 13.7499 17.5Z" fill="#5C6C8A"/>
</svg>
