<svg width="145" height="64" viewBox="0 0 145 64" fill="none" xmlns="http://www.w3.org/2000/svg">
<path d="M14.1694 31.0042C15.5914 26.9084 16.3016 24.8606 17.856 24.5865C19.4103 24.3124 20.7781 25.9938 23.5152 29.3563L24.2238 30.2264C25.0016 31.1826 25.3905 31.6606 25.9117 31.9292C26.433 32.1978 27.0303 32.2261 28.225 32.2829L29.3105 32.3352C33.5095 32.5374 35.6071 32.638 36.3604 34.0978C37.1117 35.5561 36.0202 37.4088 33.8352 41.1128L33.2696 42.0706C32.6495 43.1226 32.338 43.6497 32.2619 44.2453C32.1861 44.8425 32.3529 45.4427 32.6861 46.6414L32.9903 47.7334C34.163 51.9556 34.75 54.0658 33.6609 55.2411C32.572 56.418 30.5275 55.8799 26.4424 54.8063L25.3832 54.5293C24.2223 54.2229 23.6422 54.0713 23.0727 54.1718C22.5031 54.2722 22.0098 54.613 21.0221 55.2983L20.1248 55.9202C16.6516 58.3266 14.9141 59.5299 13.4907 58.7993C12.0633 58.066 11.8932 55.8824 11.5511 51.5138L11.4638 50.3851C11.3666 49.1431 11.318 48.5221 11.0412 47.9887C10.7674 47.4532 10.2944 47.0644 9.35216 46.2896L8.49279 45.5814C5.173 42.8497 3.51364 41.482 3.72058 39.853C3.92915 38.2237 5.86726 37.4098 9.74406 35.7853L10.7463 35.3648C11.8479 34.9032 12.3978 34.6725 12.7974 34.2416C13.1953 33.811 13.3973 33.2287 13.8012 32.0642L14.1694 31.0042Z" fill="#FFBC00" stroke="#FFE899" stroke-width="3" stroke-linejoin="round"/>
<path d="M65.1586 14.4214C68.5373 8.36271 70.2253 5.33337 72.7506 5.33337C75.2759 5.33337 76.9639 8.36271 80.3426 14.4214L81.2173 15.9894C82.1773 17.712 82.6573 18.5734 83.4039 19.1414C84.1506 19.7094 85.0839 19.92 86.9506 20.3414L88.6466 20.7254C95.2066 22.2107 98.4839 22.952 99.2653 25.4614C100.044 27.968 97.8093 30.584 93.3373 35.8134L92.1799 37.1654C90.9106 38.6507 90.2733 39.3947 89.9879 40.312C89.7026 41.232 89.7986 42.224 89.9906 44.2054L90.1666 46.0107C90.8413 52.9894 91.1799 56.4774 89.1373 58.0267C87.0946 59.5787 84.0226 58.1627 77.8839 55.336L76.2919 54.6054C74.5479 53.8 73.6759 53.4 72.7506 53.4C71.8253 53.4 70.9533 53.8 69.2066 54.6054L67.6199 55.336C61.4786 58.1627 58.4066 59.576 56.3666 58.0294C54.3213 56.4774 54.6599 52.9894 55.3346 46.0107L55.5106 44.208C55.7026 42.224 55.7986 41.232 55.5106 40.3147C55.2279 39.3947 54.5906 38.6507 53.3213 37.168L52.1639 35.8134C47.6919 30.5867 45.4573 27.9707 46.2359 25.4614C47.0173 22.952 50.2973 22.208 56.8573 20.7254L58.5533 20.3414C60.4173 19.92 61.3479 19.7094 62.0973 19.1414C62.8439 18.5734 63.3239 17.712 64.2839 15.9894L65.1586 14.4214Z" fill="#FFBC00" stroke="#FFE899" stroke-width="3" stroke-linejoin="round"/>
<path d="M121.985 29.3562C124.722 25.9938 126.09 24.3124 127.645 24.5865C129.199 24.8605 129.909 26.9083 131.331 31.0041L131.699 32.0642C132.103 33.2287 132.305 33.8109 132.703 34.2416C133.101 34.6722 133.653 34.9032 134.756 35.3651L135.758 35.7855C139.635 37.4117 141.571 38.2237 141.78 39.853C141.987 41.4804 140.328 42.848 137.008 45.5813L136.149 46.2879C135.206 47.0644 134.733 47.4531 134.458 47.9868C134.183 48.5221 134.134 49.1431 134.037 50.3834L133.949 51.5137C133.607 55.8823 133.437 58.066 132.012 58.7979C130.586 59.5315 128.849 58.3265 125.377 55.9205L124.477 55.298C123.491 54.613 122.997 54.2722 122.428 54.1717C121.858 54.0713 121.278 54.2229 120.116 54.529L119.06 54.8065C114.973 55.8798 112.929 56.4163 111.841 55.243C110.751 54.0657 111.338 51.9556 112.51 47.7334L112.814 46.643C113.148 45.4426 113.314 44.8425 113.237 44.2466C113.163 43.6496 112.851 43.1225 112.231 42.0722L111.665 41.1128C109.48 37.4104 108.389 35.5577 109.14 34.0977C109.893 32.638 111.993 32.536 116.192 32.3354L117.277 32.2831C118.47 32.2261 119.066 32.1974 119.589 31.9291C120.11 31.6606 120.499 31.1825 121.277 30.2264L121.985 29.3562Z" fill="#FFBC00" stroke="#FFE899" stroke-width="3" stroke-linejoin="round"/>
</svg>
