<svg width="64" height="64" viewBox="0 0 64 64" fill="none" xmlns="http://www.w3.org/2000/svg">
<rect width="64" height="64" fill="white"/>
<path d="M35.0418 49.7109C44.627 49.7109 52.3973 41.9407 52.3973 32.3555C52.3973 22.7703 44.627 15 35.0418 15C25.4567 15 17.6863 22.7703 17.6863 32.3555C17.6863 41.9407 25.4567 49.7109 35.0418 49.7109Z" fill="#EDF0F8" stroke="#5C6C8A" stroke-miterlimit="10" stroke-linecap="round" stroke-linejoin="round"/>
<path d="M48.4736 24.5351C55.535 25.6151 60.5823 28.6411 61.3461 32.949C62.5745 39.8839 52.0858 46.2811 38.1114 48.7574C24.137 51.236 11.9699 48.8547 10.7415 41.9198C10.0556 38.0474 12.9721 33.9608 18.1143 30.6721" stroke="#5C6C8A" stroke-miterlimit="10" stroke-linecap="round" stroke-linejoin="round"/>
<path d="M59.3563 49.7108C61.3687 49.7108 63.0001 48.0794 63.0001 46.067C63.0001 44.0546 61.3687 42.4232 59.3563 42.4232C57.3439 42.4232 55.7125 44.0546 55.7125 46.067C55.7125 48.0794 57.3439 49.7108 59.3563 49.7108Z" fill="white" stroke="#5C6C8A" stroke-miterlimit="10" stroke-linecap="round" stroke-linejoin="round"/>
<path d="M4.64387 49.7108C6.65628 49.7108 8.28766 48.0794 8.28766 46.067C8.28766 44.0546 6.65628 42.4232 4.64387 42.4232C2.63146 42.4232 1.00008 44.0546 1.00008 46.067C1.00008 48.0794 2.63146 49.7108 4.64387 49.7108Z" fill="white" stroke="#5C6C8A" stroke-miterlimit="10" stroke-linecap="round" stroke-linejoin="round"/>
</svg>
