<svg width="256" height="256" viewBox="0 0 256 256" fill="none" xmlns="http://www.w3.org/2000/svg">
<path d="M49.7595 103C47.6475 105.492 46.0091 108.062 45 110.601" stroke="#465169" stroke-linecap="round" stroke-linejoin="round"/>
<path d="M144.893 101.455C141.569 98.5173 137.556 96.2368 133.945 96.2368C127.773 96.2368 127.673 99.5007 121.659 99.5007C112.387 99.5007 105.507 84 87.6768 84C79.3781 84 69.9701 87.4026 62 92.401" stroke="#465169" stroke-linecap="round" stroke-linejoin="round"/>
<path d="M185.587 93.2667C181.533 90.6704 176.799 89 171.443 89C149.838 89 139.165 113.791 125.026 113.791C112.066 113.791 111.044 107.229 95.0011 107.229C88.0315 107.229 76.1467 113.183 69 121.215" stroke="#465169" stroke-linecap="round" stroke-linejoin="round"/>
<path d="M127.106 146.742C127.017 146.317 126.984 145.882 127.008 145.448C127.074 144.067 127.628 142.971 128.247 143.001C128.349 143.013 128.447 143.047 128.535 143.101C128.622 143.155 128.697 143.228 128.753 143.314" stroke="#465169" stroke-linecap="round" stroke-linejoin="round"/>
<path d="M126 157.339C126.145 155.536 126.986 148.438 127.67 146" stroke="#465169" stroke-miterlimit="10" stroke-linecap="round"/>
<path d="M116 172V213.574H119.441L123.396 191.332C123.396 191.332 123.94 179.3 116 172Z" fill="#465169"/>
<path d="M127.334 171.297C127.43 172.496 128.627 194.311 128.627 194.311V214.175L125.096 214.552L122.827 193.432L116 172.116C117.033 171.549 124.595 170.48 127.334 171.297Z" fill="#465169"/>
<path d="M127.161 161.695C127.905 166 127.78 170.303 127.389 170.805C126.581 171.844 116.936 172.548 116.048 171.622C115.246 170.783 113.113 155.871 118.941 153" stroke="#465169" stroke-miterlimit="10" stroke-linecap="round"/>
<path d="M121 153C123.057 153.269 124.471 155.197 125.418 157.708" stroke="#465169" stroke-miterlimit="10" stroke-linecap="round"/>
<path d="M129.275 147.284C129.057 146.698 128.967 146.072 129.011 145.448C129.077 144.067 129.631 142.971 130.25 143.001C130.869 143.03 131.317 144.174 131.246 145.561C131.229 146.156 131.094 146.742 130.847 147.284" stroke="#465169" stroke-miterlimit="10" stroke-linecap="round"/>
<path d="M125.814 144.872L125 145L125.128 145.813L125.941 145.686L125.814 144.872Z" fill="#465169"/>
<path d="M121 151V152.547" stroke="#465169" stroke-linecap="round" stroke-linejoin="round"/>
<path d="M121.133 154.014C120.361 154.204 119 154.106 119 153.653V148" stroke="#465169" stroke-linecap="round" stroke-linejoin="round"/>
<path d="M123.68 145C123.953 145.703 124.091 146.452 124.085 147.206C124.085 149.553 122.842 151.451 121.312 151.451C120.83 151.442 120.365 151.265 120 150.95" stroke="#465169" stroke-miterlimit="10" stroke-linecap="round"/>
<path d="M119.184 148.811C119.1 148.835 119.013 148.848 118.926 148.847C118.784 148.848 118.643 148.815 118.516 148.752C118.388 148.69 118.277 148.598 118.19 148.486C118.104 148.373 118.045 148.241 118.017 148.102C117.99 147.963 117.995 147.819 118.032 147.682C118.07 147.544 118.138 147.418 118.232 147.311C118.326 147.205 118.444 147.122 118.576 147.068C118.707 147.015 118.85 146.992 118.991 147.002C119.133 147.013 119.27 147.056 119.393 147.128" stroke="#465169" stroke-linecap="round" stroke-linejoin="round"/>
<path d="M114.363 155.682C114.363 154.201 113.163 153 111.682 153C110.201 153 109 154.201 109 155.682V168.368C109 169.849 110.201 171.05 111.682 171.05C113.163 171.05 114.363 169.849 114.363 168.368V155.682Z" fill="#465169"/>
<path d="M122.855 161.275C122.305 164.548 119.655 167.035 116.481 167.035C112.901 167.035 110 163.893 110 160.019C110 156.145 112.901 153 116.481 153C117.456 153.01 118.415 153.247 119.283 153.691C120.151 154.135 120.903 154.775 121.482 155.56" stroke="#465169" stroke-miterlimit="10" stroke-linecap="round"/>
<path d="M124 157.379C125.054 157.434 126.688 157.575 127.484 157.861C127.569 157.321 128.051 149.59 128.873 147" stroke="#465169" stroke-linecap="round" stroke-linejoin="round"/>
<path d="M130.339 147C130.339 147.307 132.154 159.988 130.339 161.492C128.916 162.669 124.824 161.686 123 161.112" stroke="#465169" stroke-linecap="round" stroke-linejoin="round"/>
<path d="M117.087 157.179C117.688 154.73 123.137 156.767 123.63 157.326C124.221 157.996 123.165 161.772 122.35 161.947C121.021 162.235 116.306 160.356 117.087 157.179Z" stroke="#465169" stroke-miterlimit="10" stroke-linecap="round"/>
<path d="M69.4454 181.38H83.152L56.752 73L46 117.143" stroke="#465169" stroke-miterlimit="10" stroke-linecap="round"/>
<path d="M55.1712 156.774L36.4 73L10 190.813H42.3691" stroke="#465169" stroke-miterlimit="10" stroke-linecap="round"/>
<path d="M36 189.83V84" stroke="#7E8DA9" stroke-linecap="round" stroke-linejoin="round"/>
<path d="M36 119.236L41.7365 113" stroke="#7E8DA9" stroke-linecap="round" stroke-linejoin="round"/>
<path d="M36 149.37L44.6208 140" stroke="#7E8DA9" stroke-linecap="round" stroke-linejoin="round"/>
<path d="M36 180.572L40.2069 176" stroke="#7E8DA9" stroke-linecap="round" stroke-linejoin="round"/>
<path d="M36.7365 119.236L31 113" stroke="#7E8DA9" stroke-linecap="round" stroke-linejoin="round"/>
<path d="M36.6187 149.37L28 140" stroke="#7E8DA9" stroke-linecap="round" stroke-linejoin="round"/>
<path d="M36.408 180.575L23 166" stroke="#7E8DA9" stroke-linecap="round" stroke-linejoin="round"/>
<path d="M55.4427 157H55.4405C47.4652 157 41 163.465 41 171.441V184.62C41 192.596 47.4652 199.061 55.4405 199.061H55.4427C63.418 199.061 69.8832 192.596 69.8832 184.62V171.441C69.8832 163.465 63.418 157 55.4427 157Z" stroke="#7E8DA9" stroke-linecap="round" stroke-linejoin="round"/>
<path d="M55 209.913V170" stroke="#7E8DA9" stroke-linecap="round" stroke-linejoin="round"/>
<path d="M55 186.947C62.8933 186.947 62.8933 182.194 62.8933 175" stroke="#7E8DA9" stroke-linecap="round" stroke-linejoin="round"/>
<path d="M55.4721 179.286C50 179.286 50 175.986 50 171" stroke="#7E8DA9" stroke-linecap="round" stroke-linejoin="round"/>
<path d="M160 181H179.597" stroke="#465169" stroke-linecap="round" stroke-linejoin="round"/>
<path d="M196.87 181.542H246.15V142.692C246.137 138.097 244.306 133.695 241.057 130.446C237.808 127.197 233.405 125.365 228.811 125.352V125.352C227.877 125.352 226.944 125.428 226.022 125.578V80.8699C226.022 77.7221 224.772 74.7033 222.546 72.4774C220.321 70.2514 217.302 69.0006 214.155 69V69C211.007 69 207.987 70.2506 205.761 72.4766C203.535 74.7026 202.285 77.7218 202.285 80.8699V90.44C200.499 89.8314 198.625 89.5208 196.738 89.5205V89.5205C192.143 89.534 187.74 91.3655 184.491 94.6149C181.242 97.8643 179.411 102.267 179.398 106.862V138.73H171.846C168.707 138.74 165.7 139.991 163.48 142.21C161.261 144.43 160.01 147.438 160 150.577V178.167C160 179.31 160.167 180.447 160.495 181.542" stroke="#465169" stroke-linecap="round" stroke-linejoin="round"/>
<path d="M213 157.973C232.543 157.973 232.543 149.227 232.543 136" stroke="#7E8DA9" stroke-linecap="round" stroke-linejoin="round"/>
<path d="M213.752 170.089C203 170.089 203 165.277 203 158" stroke="#7E8DA9" stroke-linecap="round" stroke-linejoin="round"/>
<path d="M213 181.575V78" stroke="#7E8DA9" stroke-linecap="round" stroke-linejoin="round"/>
<path d="M213.714 135.716L203 125" stroke="#7E8DA9" stroke-linecap="round" stroke-linejoin="round"/>
<path d="M213 113.481L219.483 107" stroke="#7E8DA9" stroke-linecap="round" stroke-linejoin="round"/>
<path d="M159.673 72.4591C160.245 70.1208 159.961 67.6547 158.871 65.5082C157.781 63.3616 155.958 61.6769 153.732 60.7595C151.506 59.8421 149.025 59.7528 146.739 60.5079C144.453 61.263 142.514 62.8124 141.273 64.8751C140.057 64.3258 138.722 64.0899 137.392 64.1891C136.061 64.2882 134.776 64.7193 133.655 65.4428C132.534 66.1663 131.612 67.1592 130.974 68.3309C130.335 69.5025 130 70.8155 130 72.1498C130 72.2543 130 72.3631 130 72.4591H159.673Z" stroke="#465169" stroke-linecap="round" stroke-linejoin="round"/>
<path d="M62.2889 57.4591C61.7163 55.1208 62.0007 52.6547 63.0907 50.5082C64.1806 48.3616 66.0038 46.6769 68.2295 45.7595C70.4553 44.8421 72.9361 44.7528 75.222 45.5079C77.5079 46.263 79.4475 47.8124 80.6888 49.8751C81.9047 49.324 83.2394 49.0868 84.5707 49.1852C85.902 49.2835 87.1874 49.7144 88.309 50.4383C89.4307 51.1621 90.3528 52.1558 90.9909 53.3284C91.629 54.5009 91.9626 55.8149 91.9614 57.1498C91.9614 57.2522 91.9614 57.3631 91.9614 57.4591H62.2889Z" stroke="#465169" stroke-linecap="round" stroke-linejoin="round"/>
<path d="M216.573 208.553C215.052 203.701 207.052 200 197.413 200C186.687 200 178 204.58 178 210.24H212.846" stroke="#465169" stroke-linecap="round" stroke-linejoin="round"/>
<path d="M106.849 215C104.172 215 102 216.869 102 219.175H111.7C111.7 216.869 109.529 215 106.849 215Z" stroke="#465169" stroke-linecap="round" stroke-linejoin="round"/>
<path d="M177.849 193C175.17 193 173 195.773 173 199.199H182.692C182.692 195.775 180.526 193 177.849 193Z" stroke="#465169" stroke-linecap="round" stroke-linejoin="round"/>
<path d="M25.7141 208C21.4475 208 18 209.389 18 211.1H33.4219C33.4219 209.389 29.9744 208 25.7141 208Z" stroke="#465169" stroke-linecap="round" stroke-linejoin="round"/>
<path d="M219.714 208C215.447 208 212 209.389 212 211.1H227.426C227.426 209.389 223.974 208 219.714 208Z" stroke="#465169" stroke-linecap="round" stroke-linejoin="round"/>
<path d="M188.353 159H188.35C183.186 159 179 163.186 179 168.35V176.884C179 182.048 183.186 186.234 188.35 186.234H188.353C193.517 186.234 197.703 182.048 197.703 176.884V168.35C197.703 163.186 193.517 159 188.353 159Z" stroke="#465169" stroke-linecap="round" stroke-linejoin="round"/>
<path d="M188 193.845V168" stroke="#7E8DA9" stroke-linecap="round" stroke-linejoin="round"/>
<path d="M188 178.735C193.107 178.735 193.107 175.657 193.107 171" stroke="#7E8DA9" stroke-linecap="round" stroke-linejoin="round"/>
<path d="M188.543 174.368C185 174.368 185 172.234 185 169" stroke="#7E8DA9" stroke-linecap="round" stroke-linejoin="round"/>
<path d="M71 202H88.2885" stroke="#7E8DA9" stroke-linecap="round" stroke-linejoin="round"/>
<path d="M143 191H154.465" stroke="#7E8DA9" stroke-linecap="round" stroke-linejoin="round"/>
<path d="M134 194H145.467" stroke="#7E8DA9" stroke-linecap="round" stroke-linejoin="round"/>
<path d="M25 196H36.4667" stroke="#7E8DA9" stroke-linecap="round" stroke-linejoin="round"/>
<path d="M160 213H176.117" stroke="#7E8DA9" stroke-linecap="round" stroke-linejoin="round"/>
<path d="M118.294 145.707C117.851 145.349 117.799 142.721 118.919 141.822C120.039 140.924 123.314 140.222 124.735 139" stroke="#465169" stroke-miterlimit="10" stroke-linecap="round"/>
<path d="M123 142.311C123.326 142.031 124.353 140.431 124.525 140" stroke="#465169" stroke-miterlimit="10" stroke-linecap="round"/>
<path d="M124 142.707C124.358 142.193 124.609 141.613 124.738 141" stroke="#465169" stroke-miterlimit="10" stroke-linecap="round"/>
<path d="M131.201 145.103C131.187 145.39 131.15 145.676 131.09 145.957L132.822 145.814L132.357 143L131 143.427C131.168 143.969 131.236 144.537 131.201 145.103Z" fill="#465169"/>
<path d="M128.068 144.958C128.083 144.635 128.128 144.315 128.2 144L125 145.011L125.213 146.338L128.132 146.097C128.068 145.721 128.047 145.339 128.068 144.958Z" fill="#465169"/>
<path d="M116 213.16V217.994H122.893L117.971 214.931V213" stroke="#465169" stroke-linecap="round" stroke-linejoin="round"/>
<path d="M126 213.16V217.994H132.893L127.969 214.931V213" stroke="#465169" stroke-linecap="round" stroke-linejoin="round"/>
<path d="M122 146C122 146.254 122.115 147.05 122.659 147.457" stroke="#465169" stroke-miterlimit="10" stroke-linecap="round"/>
<path d="M122 148C122.064 148.121 122.161 148.223 122.279 148.293C122.397 148.363 122.532 148.399 122.67 148.397" stroke="#465169" stroke-miterlimit="10" stroke-linecap="round"/>
</svg>
